<svg width="500" height="250" viewBox="0 0 500 250" fill="none" xmlns="http://www.w3.org/2000/svg">
  <path d="M50 0H0V220H50V0Z" fill="#6A294D" />
  <path d="M100 0H50V220H100V0Z" fill="#CF5597" />
  <path d="M150 0H100V220H150V0Z" fill="#337B77" />
  <path d="M200 0H150V220H200V0Z" fill="#4297FA" />
  <path d="M250 0H200V220H250V0Z" fill="#FDCE02" />
  <path d="M300 0H250V220H300V0Z" fill="#091221" />
  <path d="M350 0H300V220H350V0Z" fill="black" />
  <path d="M400 0H350V220H400V0Z" fill="#808080" />
  <path d="M450 0H400V220H450V0Z" fill="#F1F1F1" />
  <path d="M500 0H450V220H500V0Z" fill="white" />
  <path d="M10.5284 235V230.636H13.1619V231.105H11.0568V232.58H13.0256V233.048H11.0568V234.531H13.196V235H10.5284ZM14.4212 231.727L15.2053 233.065L15.9893 231.727H16.5689L15.5121 233.364L16.5689 235H15.9893L15.2053 233.73L14.4212 235H13.8416L14.8814 233.364L13.8416 231.727H14.4212ZM17.2864 236.227V231.727H17.7722V232.247H17.8319C17.8688 232.19 17.9199 232.118 17.9853 232.03C18.052 231.94 18.1472 231.861 18.2708 231.791C18.3958 231.72 18.5648 231.685 18.7779 231.685C19.0534 231.685 19.2963 231.754 19.5066 231.891C19.7168 232.029 19.8809 232.224 19.9988 232.477C20.1167 232.73 20.1756 233.028 20.1756 233.372C20.1756 233.719 20.1167 234.019 19.9988 234.273C19.8809 234.526 19.7175 234.722 19.5087 234.862C19.2999 234.999 19.0591 235.068 18.7864 235.068C18.5762 235.068 18.4078 235.033 18.2814 234.964C18.155 234.893 18.0577 234.812 17.9895 234.723C17.9213 234.632 17.8688 234.557 17.8319 234.497H17.7892V236.227H17.2864ZM17.7807 233.364C17.7807 233.611 17.8169 233.829 17.8894 234.018C17.9618 234.205 18.0676 234.352 18.2069 234.459C18.3461 234.564 18.5165 234.616 18.7182 234.616C18.9284 234.616 19.1039 234.561 19.2445 234.45C19.3865 234.338 19.4931 234.187 19.5641 233.999C19.6365 233.808 19.6728 233.597 19.6728 233.364C19.6728 233.134 19.6373 232.926 19.5662 232.741C19.4966 232.555 19.3908 232.408 19.2488 232.3C19.1081 232.191 18.9313 232.136 18.7182 232.136C18.5137 232.136 18.3418 232.188 18.2026 232.292C18.0634 232.394 17.9583 232.538 17.8873 232.722C17.8162 232.906 17.7807 233.119 17.7807 233.364ZM22.2722 235.068C21.9767 235.068 21.7175 234.998 21.4945 234.857C21.2729 234.717 21.0996 234.52 20.9746 234.267C20.851 234.014 20.7892 233.719 20.7892 233.381C20.7892 233.04 20.851 232.742 20.9746 232.488C21.0996 232.234 21.2729 232.036 21.4945 231.896C21.7175 231.755 21.9767 231.685 22.2722 231.685C22.5676 231.685 22.8262 231.755 23.0478 231.896C23.2708 232.036 23.4441 232.234 23.5676 232.488C23.6926 232.742 23.7551 233.04 23.7551 233.381C23.7551 233.719 23.6926 234.014 23.5676 234.267C23.4441 234.52 23.2708 234.717 23.0478 234.857C22.8262 234.998 22.5676 235.068 22.2722 235.068ZM22.2722 234.616C22.4966 234.616 22.6813 234.559 22.8262 234.444C22.9711 234.329 23.0783 234.178 23.1479 233.99C23.2175 233.803 23.2523 233.599 23.2523 233.381C23.2523 233.162 23.2175 232.958 23.1479 232.769C23.0783 232.58 22.9711 232.428 22.8262 232.311C22.6813 232.195 22.4966 232.136 22.2722 232.136C22.0478 232.136 21.8631 232.195 21.7182 232.311C21.5733 232.428 21.4661 232.58 21.3965 232.769C21.3269 232.958 21.2921 233.162 21.2921 233.381C21.2921 233.599 21.3269 233.803 21.3965 233.99C21.4661 234.178 21.5733 234.329 21.7182 234.444C21.8631 234.559 22.0478 234.616 22.2722 234.616ZM24.5227 235V231.727H25.0085V232.222H25.0426C25.1023 232.06 25.2102 231.928 25.3665 231.827C25.5227 231.727 25.6989 231.676 25.8949 231.676C25.9318 231.676 25.978 231.677 26.0334 231.678C26.0888 231.68 26.1307 231.682 26.1591 231.685V232.196C26.142 232.192 26.103 232.185 26.0419 232.177C25.9822 232.167 25.919 232.162 25.8523 232.162C25.6932 232.162 25.5511 232.195 25.4261 232.262C25.3026 232.327 25.2045 232.418 25.1321 232.535C25.0611 232.65 25.0256 232.781 25.0256 232.929V235H24.5227ZM28.3835 231.727V232.153H26.6875V231.727H28.3835ZM27.1818 230.943H27.6847V234.062C27.6847 234.205 27.7053 234.311 27.7464 234.382C27.7891 234.452 27.843 234.499 27.9084 234.523C27.9751 234.545 28.0455 234.557 28.1193 234.557C28.1747 234.557 28.2202 234.554 28.2557 234.548C28.2912 234.541 28.3196 234.536 28.3409 234.531L28.4432 234.983C28.4091 234.996 28.3615 235.009 28.3004 235.021C28.2393 235.036 28.1619 235.043 28.0682 235.043C27.9261 235.043 27.7869 235.012 27.6506 234.951C27.5156 234.89 27.4034 234.797 27.3139 234.672C27.2259 234.547 27.1818 234.389 27.1818 234.199V230.943ZM30.4769 235.068C30.1616 235.068 29.8896 234.999 29.6609 234.859C29.4336 234.719 29.2582 234.523 29.1346 234.271C29.0124 234.018 28.9513 233.724 28.9513 233.389C28.9513 233.054 29.0124 232.759 29.1346 232.503C29.2582 232.246 29.43 232.045 29.6502 231.902C29.8718 231.757 30.1303 231.685 30.4258 231.685C30.5962 231.685 30.7646 231.713 30.9308 231.77C31.0969 231.827 31.2482 231.919 31.3846 232.047C31.521 232.173 31.6296 232.341 31.7106 232.55C31.7915 232.759 31.832 233.016 31.832 233.321V233.534H29.3093V233.099H31.3207C31.3207 232.915 31.2837 232.75 31.2099 232.605C31.1374 232.46 31.0337 232.346 30.8988 232.262C30.7653 232.178 30.6076 232.136 30.4258 232.136C30.2255 232.136 30.0522 232.186 29.9059 232.286C29.761 232.384 29.6495 232.511 29.5714 232.669C29.4933 232.827 29.4542 232.996 29.4542 233.176V233.466C29.4542 233.713 29.4968 233.923 29.582 234.094C29.6687 234.265 29.7887 234.395 29.9421 234.484C30.0955 234.572 30.2738 234.616 30.4769 234.616C30.609 234.616 30.7283 234.598 30.8349 234.561C30.9428 234.523 31.0359 234.466 31.114 234.391C31.1921 234.314 31.2525 234.219 31.2951 234.105L31.7809 234.241C31.7298 234.406 31.6438 234.551 31.5231 234.676C31.4023 234.8 31.2532 234.896 31.0756 234.966C30.8981 235.034 30.6985 235.068 30.4769 235.068ZM33.8327 235.068C33.56 235.068 33.3192 234.999 33.1104 234.862C32.9016 234.722 32.7383 234.526 32.6204 234.273C32.5025 234.019 32.4435 233.719 32.4435 233.372C32.4435 233.028 32.5025 232.73 32.6204 232.477C32.7383 232.224 32.9023 232.029 33.1126 231.891C33.3228 231.754 33.5657 231.685 33.8413 231.685C34.0543 231.685 34.2227 231.72 34.3462 231.791C34.4712 231.861 34.5664 231.94 34.6317 232.03C34.6985 232.118 34.7504 232.19 34.7873 232.247H34.8299V230.636H35.3327V235H34.8469V234.497H34.7873C34.7504 234.557 34.6978 234.632 34.6296 234.723C34.5614 234.812 34.4641 234.893 34.3377 234.964C34.2113 235.033 34.043 235.068 33.8327 235.068ZM33.9009 234.616C34.1026 234.616 34.2731 234.564 34.4123 234.459C34.5515 234.352 34.6573 234.205 34.7298 234.018C34.8022 233.829 34.8384 233.611 34.8384 233.364C34.8384 233.119 34.8029 232.906 34.7319 232.722C34.6609 232.538 34.5558 232.394 34.4165 232.292C34.2773 232.188 34.1055 232.136 33.9009 232.136C33.6879 232.136 33.5103 232.191 33.3683 232.3C33.2276 232.408 33.1218 232.555 33.0508 232.741C32.9812 232.926 32.9464 233.134 32.9464 233.364C32.9464 233.597 32.9819 233.808 33.0529 233.999C33.1254 234.187 33.2319 234.338 33.3725 234.45C33.5146 234.561 33.6907 234.616 33.9009 234.616ZM39.4684 231.727V232.153H37.7042V231.727H39.4684ZM38.2326 235V231.276C38.2326 231.088 38.2766 230.932 38.3647 230.807C38.4528 230.682 38.5671 230.588 38.7077 230.526C38.8484 230.463 38.9968 230.432 39.1531 230.432C39.2766 230.432 39.3775 230.442 39.4556 230.462C39.5337 230.482 39.592 230.5 39.6303 230.517L39.4854 230.952C39.4599 230.943 39.4244 230.933 39.3789 230.92C39.3349 230.907 39.2766 230.901 39.2042 230.901C39.038 230.901 38.918 230.942 38.8441 231.026C38.7717 231.11 38.7354 231.233 38.7354 231.395V235H38.2326ZM40.1731 235V231.727H40.6589V232.222H40.693C40.7527 232.06 40.8606 231.928 41.0169 231.827C41.1731 231.727 41.3493 231.676 41.5453 231.676C41.5822 231.676 41.6284 231.677 41.6838 231.678C41.7392 231.68 41.7811 231.682 41.8095 231.685V232.196C41.7924 232.192 41.7534 232.185 41.6923 232.177C41.6326 232.167 41.5694 232.162 41.5027 232.162C41.3436 232.162 41.2015 232.195 41.0765 232.262C40.9529 232.327 40.8549 232.418 40.7825 232.535C40.7115 232.65 40.676 232.781 40.676 232.929V235H40.1731ZM43.6355 235.068C43.34 235.068 43.0808 234.998 42.8578 234.857C42.6362 234.717 42.4629 234.52 42.3379 234.267C42.2143 234.014 42.1525 233.719 42.1525 233.381C42.1525 233.04 42.2143 232.742 42.3379 232.488C42.4629 232.234 42.6362 232.036 42.8578 231.896C43.0808 231.755 43.34 231.685 43.6355 231.685C43.9309 231.685 44.1895 231.755 44.411 231.896C44.6341 232.036 44.8074 232.234 44.9309 232.488C45.0559 232.742 45.1184 233.04 45.1184 233.381C45.1184 233.719 45.0559 234.014 44.9309 234.267C44.8074 234.52 44.6341 234.717 44.411 234.857C44.1895 234.998 43.9309 235.068 43.6355 235.068ZM43.6355 234.616C43.8599 234.616 44.0446 234.559 44.1895 234.444C44.3343 234.329 44.4416 234.178 44.5112 233.99C44.5808 233.803 44.6156 233.599 44.6156 233.381C44.6156 233.162 44.5808 232.958 44.5112 232.769C44.4416 232.58 44.3343 232.428 44.1895 232.311C44.0446 232.195 43.8599 232.136 43.6355 232.136C43.411 232.136 43.2264 232.195 43.0815 232.311C42.9366 232.428 42.8294 232.58 42.7598 232.769C42.6902 232.958 42.6554 233.162 42.6554 233.381C42.6554 233.599 42.6902 233.803 42.7598 233.99C42.8294 234.178 42.9366 234.329 43.0815 234.444C43.2264 234.559 43.411 234.616 43.6355 234.616ZM45.886 235V231.727H46.3718V232.239H46.4144C46.4826 232.064 46.5927 231.928 46.7447 231.832C46.8967 231.734 47.0792 231.685 47.2923 231.685C47.5082 231.685 47.6879 231.734 47.8313 231.832C47.9762 231.928 48.0891 232.064 48.1701 232.239H48.2042C48.288 232.07 48.4137 231.935 48.5813 231.836C48.7489 231.735 48.9499 231.685 49.1843 231.685C49.4769 231.685 49.7163 231.776 49.9023 231.96C50.0884 232.141 50.1815 232.425 50.1815 232.81V235H49.6786V232.81C49.6786 232.568 49.6126 232.396 49.4805 232.292C49.3484 232.188 49.1928 232.136 49.0138 232.136C48.7837 232.136 48.6055 232.206 48.479 232.345C48.3526 232.483 48.2894 232.658 48.2894 232.869V235H47.7781V232.759C47.7781 232.572 47.7177 232.423 47.5969 232.309C47.4762 232.194 47.3207 232.136 47.1303 232.136C46.9996 232.136 46.8775 232.171 46.7638 232.241C46.6516 232.31 46.5607 232.407 46.4911 232.531C46.4229 232.653 46.3888 232.794 46.3888 232.955V235H45.886ZM56.3679 232H55.8395C55.8082 231.848 55.7536 231.714 55.6754 231.599C55.5987 231.484 55.505 231.388 55.3942 231.31C55.2848 231.23 55.1634 231.17 55.0298 231.131C54.8963 231.091 54.7571 231.071 54.6122 231.071C54.348 231.071 54.1087 231.138 53.8942 231.271C53.6811 231.405 53.5114 231.602 53.3849 231.862C53.2599 232.121 53.1974 232.44 53.1974 232.818C53.1974 233.196 53.2599 233.515 53.3849 233.775C53.5114 234.035 53.6811 234.232 53.8942 234.365C54.1087 234.499 54.348 234.565 54.6122 234.565C54.7571 234.565 54.8963 234.545 55.0298 234.506C55.1634 234.466 55.2848 234.407 55.3942 234.329C55.505 234.249 55.5987 234.152 55.6754 234.037C55.7536 233.92 55.8082 233.787 55.8395 233.636H56.3679C56.3281 233.859 56.2557 234.059 56.1506 234.235C56.0455 234.411 55.9148 234.561 55.7585 234.685C55.6023 234.807 55.4268 234.9 55.2322 234.964C55.0391 235.028 54.8324 235.06 54.6122 235.06C54.2401 235.06 53.9091 234.969 53.6193 234.787C53.3295 234.605 53.1016 234.347 52.9354 234.011C52.7692 233.676 52.6861 233.278 52.6861 232.818C52.6861 232.358 52.7692 231.96 52.9354 231.625C53.1016 231.29 53.3295 231.031 53.6193 230.849C53.9091 230.668 54.2401 230.577 54.6122 230.577C54.8324 230.577 55.0391 230.609 55.2322 230.673C55.4268 230.737 55.6023 230.83 55.7585 230.954C55.9148 231.076 56.0455 231.225 56.1506 231.401C56.2557 231.576 56.3281 231.776 56.3679 232ZM58.4831 235.068C58.1877 235.068 57.9284 234.998 57.7054 234.857C57.4838 234.717 57.3105 234.52 57.1855 234.267C57.062 234.014 57.0002 233.719 57.0002 233.381C57.0002 233.04 57.062 232.742 57.1855 232.488C57.3105 232.234 57.4838 232.036 57.7054 231.896C57.9284 231.755 58.1877 231.685 58.4831 231.685C58.7786 231.685 59.0371 231.755 59.2587 231.896C59.4817 232.036 59.655 232.234 59.7786 232.488C59.9036 232.742 59.9661 233.04 59.9661 233.381C59.9661 233.719 59.9036 234.014 59.7786 234.267C59.655 234.52 59.4817 234.717 59.2587 234.857C59.0371 234.998 58.7786 235.068 58.4831 235.068ZM58.4831 234.616C58.7076 234.616 58.8922 234.559 59.0371 234.444C59.182 234.329 59.2892 234.178 59.3588 233.99C59.4284 233.803 59.4632 233.599 59.4632 233.381C59.4632 233.162 59.4284 232.958 59.3588 232.769C59.2892 232.58 59.182 232.428 59.0371 232.311C58.8922 232.195 58.7076 232.136 58.4831 232.136C58.2587 232.136 58.074 232.195 57.9292 232.311C57.7843 232.428 57.677 232.58 57.6074 232.769C57.5378 232.958 57.503 233.162 57.503 233.381C57.503 233.599 57.5378 233.803 57.6074 233.99C57.677 234.178 57.7843 234.329 57.9292 234.444C58.074 234.559 58.2587 234.616 58.4831 234.616ZM62.0632 235.068C61.7678 235.068 61.5085 234.998 61.2855 234.857C61.0639 234.717 60.8906 234.52 60.7656 234.267C60.642 234.014 60.5803 233.719 60.5803 233.381C60.5803 233.04 60.642 232.742 60.7656 232.488C60.8906 232.234 61.0639 232.036 61.2855 231.896C61.5085 231.755 61.7678 231.685 62.0632 231.685C62.3587 231.685 62.6172 231.755 62.8388 231.896C63.0618 232.036 63.2351 232.234 63.3587 232.488C63.4837 232.742 63.5462 233.04 63.5462 233.381C63.5462 233.719 63.4837 234.014 63.3587 234.267C63.2351 234.52 63.0618 234.717 62.8388 234.857C62.6172 234.998 62.3587 235.068 62.0632 235.068ZM62.0632 234.616C62.2876 234.616 62.4723 234.559 62.6172 234.444C62.7621 234.329 62.8693 234.178 62.9389 233.99C63.0085 233.803 63.0433 233.599 63.0433 233.381C63.0433 233.162 63.0085 232.958 62.9389 232.769C62.8693 232.58 62.7621 232.428 62.6172 232.311C62.4723 232.195 62.2876 232.136 62.0632 232.136C61.8388 232.136 61.6541 232.195 61.5092 232.311C61.3643 232.428 61.2571 232.58 61.1875 232.769C61.1179 232.958 61.0831 233.162 61.0831 233.381C61.0831 233.599 61.1179 233.803 61.1875 233.99C61.2571 234.178 61.3643 234.329 61.5092 234.444C61.6541 234.559 61.8388 234.616 62.0632 234.616ZM64.8166 230.636V235H64.3137V230.636H64.8166ZM67.0671 235.068C66.7717 235.068 66.5124 234.998 66.2894 234.857C66.0678 234.717 65.8945 234.52 65.7695 234.267C65.646 234.014 65.5842 233.719 65.5842 233.381C65.5842 233.04 65.646 232.742 65.7695 232.488C65.8945 232.234 66.0678 232.036 66.2894 231.896C66.5124 231.755 66.7717 231.685 67.0671 231.685C67.3626 231.685 67.6211 231.755 67.8427 231.896C68.0657 232.036 68.239 232.234 68.3626 232.488C68.4876 232.742 68.5501 233.04 68.5501 233.381C68.5501 233.719 68.4876 234.014 68.3626 234.267C68.239 234.52 68.0657 234.717 67.8427 234.857C67.6211 234.998 67.3626 235.068 67.0671 235.068ZM67.0671 234.616C67.2915 234.616 67.4762 234.559 67.6211 234.444C67.766 234.329 67.8732 234.178 67.9428 233.99C68.0124 233.803 68.0472 233.599 68.0472 233.381C68.0472 233.162 68.0124 232.958 67.9428 232.769C67.8732 232.58 67.766 232.428 67.6211 232.311C67.4762 232.195 67.2915 232.136 67.0671 232.136C66.8427 232.136 66.658 232.195 66.5131 232.311C66.3683 232.428 66.261 232.58 66.1914 232.769C66.1218 232.958 66.087 233.162 66.087 233.381C66.087 233.599 66.1218 233.803 66.1914 233.99C66.261 234.178 66.3683 234.329 66.5131 234.444C66.658 234.559 66.8427 234.616 67.0671 234.616ZM69.3176 235V231.727H69.8034V232.222H69.8375C69.8972 232.06 70.0051 231.928 70.1614 231.827C70.3176 231.727 70.4938 231.676 70.6898 231.676C70.7267 231.676 70.7729 231.677 70.8283 231.678C70.8837 231.68 70.9256 231.682 70.954 231.685V232.196C70.937 232.192 70.8979 232.185 70.8368 232.177C70.7772 232.167 70.714 232.162 70.6472 232.162C70.4881 232.162 70.3461 232.195 70.2211 232.262C70.0975 232.327 69.9995 232.418 69.927 232.535C69.856 232.65 69.8205 232.781 69.8205 232.929V235H69.3176ZM73.8683 232.46L73.4165 232.588C73.3881 232.513 73.3462 232.44 73.2908 232.369C73.2369 232.296 73.163 232.237 73.0692 232.19C72.9755 232.143 72.8555 232.119 72.7092 232.119C72.5089 232.119 72.342 232.165 72.2085 232.258C72.0763 232.349 72.0103 232.464 72.0103 232.605C72.0103 232.73 72.0558 232.829 72.1467 232.901C72.2376 232.974 72.3796 233.034 72.5728 233.082L73.0586 233.202C73.3512 233.273 73.5692 233.381 73.7127 233.528C73.8562 233.673 73.9279 233.859 73.9279 234.088C73.9279 234.276 73.8739 234.443 73.766 234.591C73.6594 234.739 73.5103 234.855 73.3185 234.94C73.1268 235.026 72.9038 235.068 72.6495 235.068C72.3157 235.068 72.0394 234.996 71.8207 234.851C71.6019 234.706 71.4634 234.494 71.4052 234.216L71.8825 234.097C71.9279 234.273 72.0138 234.405 72.1403 234.493C72.2681 234.581 72.435 234.625 72.641 234.625C72.8754 234.625 73.0614 234.575 73.1992 234.476C73.3384 234.375 73.408 234.254 73.408 234.114C73.408 234 73.3683 233.905 73.2887 233.828C73.2092 233.75 73.087 233.692 72.9222 233.653L72.3768 233.526C72.0771 233.455 71.8569 233.344 71.7163 233.195C71.5771 233.045 71.5075 232.857 71.5075 232.631C71.5075 232.446 71.5593 232.283 71.663 232.141C71.7681 231.999 71.9109 231.887 72.0913 231.806C72.2731 231.725 72.479 231.685 72.7092 231.685C73.033 231.685 73.2873 231.756 73.4719 231.898C73.658 232.04 73.7901 232.227 73.8683 232.46ZM75.0513 235.034C74.9462 235.034 74.856 234.996 74.7807 234.921C74.7054 234.846 74.6678 234.756 74.6678 234.651C74.6678 234.545 74.7054 234.455 74.7807 234.38C74.856 234.305 74.9462 234.267 75.0513 234.267C75.1564 234.267 75.2466 234.305 75.3219 234.38C75.3972 234.455 75.4348 234.545 75.4348 234.651C75.4348 234.72 75.4171 234.784 75.3816 234.842C75.3475 234.901 75.3013 234.947 75.2431 234.983C75.1863 235.017 75.1223 235.034 75.0513 235.034ZM77.6667 235.068C77.3599 235.068 77.0957 234.996 76.8741 234.851C76.6525 234.706 76.4821 234.506 76.3627 234.252C76.2434 233.998 76.1838 233.707 76.1838 233.381C76.1838 233.048 76.2449 232.755 76.367 232.501C76.4906 232.245 76.6625 232.045 76.8826 231.902C77.1042 231.757 77.3627 231.685 77.6582 231.685C77.8883 231.685 78.0957 231.727 78.2804 231.812C78.465 231.898 78.6163 232.017 78.7342 232.17C78.8521 232.324 78.9252 232.503 78.9537 232.707H78.4508C78.4125 232.558 78.3272 232.426 78.1951 232.311C78.0645 232.195 77.8883 232.136 77.6667 232.136C77.4707 232.136 77.2988 232.187 77.1511 232.29C77.0048 232.391 76.8904 232.533 76.8081 232.718C76.7271 232.901 76.6866 233.116 76.6866 233.364C76.6866 233.616 76.7264 233.837 76.8059 234.024C76.8869 234.212 77.0005 234.357 77.1468 234.461C77.2946 234.565 77.4679 234.616 77.6667 234.616C77.7974 234.616 77.916 234.594 78.0225 234.548C78.1291 234.503 78.2193 234.438 78.2931 234.352C78.367 234.267 78.4196 234.165 78.4508 234.045H78.9537C78.9252 234.239 78.8549 234.413 78.7427 234.567C78.6319 234.721 78.4849 234.843 78.3017 234.934C78.1199 235.023 77.9082 235.068 77.6667 235.068ZM81.0183 235.068C80.7228 235.068 80.4636 234.998 80.2406 234.857C80.019 234.717 79.8457 234.52 79.7207 234.267C79.5971 234.014 79.5353 233.719 79.5353 233.381C79.5353 233.04 79.5971 232.742 79.7207 232.488C79.8457 232.234 80.019 232.036 80.2406 231.896C80.4636 231.755 80.7228 231.685 81.0183 231.685C81.3137 231.685 81.5723 231.755 81.7939 231.896C82.0169 232.036 82.1902 232.234 82.3137 232.488C82.4387 232.742 82.5012 233.04 82.5012 233.381C82.5012 233.719 82.4387 234.014 82.3137 234.267C82.1902 234.52 82.0169 234.717 81.7939 234.857C81.5723 234.998 81.3137 235.068 81.0183 235.068ZM81.0183 234.616C81.2427 234.616 81.4274 234.559 81.5723 234.444C81.7172 234.329 81.8244 234.178 81.894 233.99C81.9636 233.803 81.9984 233.599 81.9984 233.381C81.9984 233.162 81.9636 232.958 81.894 232.769C81.8244 232.58 81.7172 232.428 81.5723 232.311C81.4274 232.195 81.2427 232.136 81.0183 232.136C80.7939 232.136 80.6092 232.195 80.4643 232.311C80.3194 232.428 80.2122 232.58 80.1426 232.769C80.073 232.958 80.0382 233.162 80.0382 233.381C80.0382 233.599 80.073 233.803 80.1426 233.99C80.2122 234.178 80.3194 234.329 80.4643 234.444C80.6092 234.559 80.7939 234.616 81.0183 234.616Z" fill="black" />
  <path d="M216.963 233.031V235H216.46V230.636H216.963V232.239H217.006C217.082 232.07 217.197 231.935 217.351 231.836C217.506 231.735 217.712 231.685 217.969 231.685C218.192 231.685 218.387 231.729 218.555 231.819C218.722 231.907 218.852 232.043 218.945 232.226C219.038 232.408 219.085 232.639 219.085 232.92V235H218.582V232.955C218.582 232.695 218.515 232.494 218.38 232.352C218.246 232.208 218.061 232.136 217.824 232.136C217.659 232.136 217.511 232.171 217.381 232.241C217.251 232.31 217.149 232.412 217.074 232.545C217 232.679 216.963 232.841 216.963 233.031ZM221.428 231.727V232.153H219.732V231.727H221.428ZM220.227 230.943H220.73V234.062C220.73 234.205 220.75 234.311 220.791 234.382C220.834 234.452 220.888 234.499 220.953 234.523C221.02 234.545 221.09 234.557 221.164 234.557C221.22 234.557 221.265 234.554 221.301 234.548C221.336 234.541 221.365 234.536 221.386 234.531L221.488 234.983C221.454 234.996 221.406 235.009 221.345 235.021C221.284 235.036 221.207 235.043 221.113 235.043C220.971 235.043 220.832 235.012 220.695 234.951C220.561 234.89 220.448 234.797 220.359 234.672C220.271 234.547 220.227 234.389 220.227 234.199V230.943ZM223.608 231.727V232.153H221.912V231.727H223.608ZM222.406 230.943H222.909V234.062C222.909 234.205 222.93 234.311 222.971 234.382C223.014 234.452 223.068 234.499 223.133 234.523C223.2 234.545 223.27 234.557 223.344 234.557C223.399 234.557 223.445 234.554 223.48 234.548C223.516 234.541 223.544 234.536 223.566 234.531L223.668 234.983C223.634 234.996 223.586 235.009 223.525 235.021C223.464 235.036 223.387 235.043 223.293 235.043C223.151 235.043 223.012 235.012 222.875 234.951C222.74 234.89 222.628 234.797 222.539 234.672C222.45 234.547 222.406 234.389 222.406 234.199V230.943ZM224.365 236.227V231.727H224.85V232.247H224.91C224.947 232.19 224.998 232.118 225.063 232.03C225.13 231.94 225.225 231.861 225.349 231.791C225.474 231.72 225.643 231.685 225.856 231.685C226.132 231.685 226.374 231.754 226.585 231.891C226.795 232.029 226.959 232.224 227.077 232.477C227.195 232.73 227.254 233.028 227.254 233.372C227.254 233.719 227.195 234.019 227.077 234.273C226.959 234.526 226.796 234.722 226.587 234.862C226.378 234.999 226.137 235.068 225.865 235.068C225.654 235.068 225.486 235.033 225.36 234.964C225.233 234.893 225.136 234.812 225.068 234.723C224.999 234.632 224.947 234.557 224.91 234.497H224.867V236.227H224.365ZM224.859 233.364C224.859 233.611 224.895 233.829 224.968 234.018C225.04 234.205 225.146 234.352 225.285 234.459C225.424 234.564 225.595 234.616 225.796 234.616C226.007 234.616 226.182 234.561 226.323 234.45C226.465 234.338 226.571 234.187 226.642 233.999C226.715 233.808 226.751 233.597 226.751 233.364C226.751 233.134 226.715 232.926 226.644 232.741C226.575 232.555 226.469 232.408 226.327 232.3C226.186 232.191 226.009 232.136 225.796 232.136C225.592 232.136 225.42 232.188 225.281 232.292C225.142 232.394 225.036 232.538 224.965 232.722C224.894 232.906 224.859 233.119 224.859 233.364ZM230.339 232.46L229.887 232.588C229.859 232.513 229.817 232.44 229.762 232.369C229.708 232.296 229.634 232.237 229.54 232.19C229.446 232.143 229.326 232.119 229.18 232.119C228.98 232.119 228.813 232.165 228.679 232.258C228.547 232.349 228.481 232.464 228.481 232.605C228.481 232.73 228.526 232.829 228.617 232.901C228.708 232.974 228.85 233.034 229.044 233.082L229.529 233.202C229.822 233.273 230.04 233.381 230.183 233.528C230.327 233.673 230.399 233.859 230.399 234.088C230.399 234.276 230.345 234.443 230.237 234.591C230.13 234.739 229.981 234.855 229.789 234.94C229.597 235.026 229.374 235.068 229.12 235.068C228.786 235.068 228.51 234.996 228.291 234.851C228.073 234.706 227.934 234.494 227.876 234.216L228.353 234.097C228.399 234.273 228.485 234.405 228.611 234.493C228.739 234.581 228.906 234.625 229.112 234.625C229.346 234.625 229.532 234.575 229.67 234.476C229.809 234.375 229.879 234.254 229.879 234.114C229.879 234 229.839 233.905 229.759 233.828C229.68 233.75 229.558 233.692 229.393 233.653L228.847 233.526C228.548 233.455 228.328 233.344 228.187 233.195C228.048 233.045 227.978 232.857 227.978 232.631C227.978 232.446 228.03 232.283 228.134 232.141C228.239 231.999 228.382 231.887 228.562 231.806C228.744 231.725 228.95 231.685 229.18 231.685C229.504 231.685 229.758 231.756 229.943 231.898C230.129 232.04 230.261 232.227 230.339 232.46ZM231.522 235.034C231.417 235.034 231.327 234.996 231.251 234.921C231.176 234.846 231.138 234.756 231.138 234.651C231.138 234.545 231.176 234.455 231.251 234.38C231.327 234.305 231.417 234.267 231.522 234.267C231.627 234.267 231.717 234.305 231.793 234.38C231.868 234.455 231.906 234.545 231.906 234.651C231.906 234.72 231.888 234.784 231.852 234.842C231.818 234.901 231.772 234.947 231.714 234.983C231.657 235.017 231.593 235.034 231.522 235.034ZM231.522 232.605C231.417 232.605 231.327 232.567 231.251 232.492C231.176 232.417 231.138 232.327 231.138 232.222C231.138 232.116 231.176 232.026 231.251 231.951C231.327 231.876 231.417 231.838 231.522 231.838C231.627 231.838 231.717 231.876 231.793 231.951C231.868 232.026 231.906 232.116 231.906 232.222C231.906 232.291 231.888 232.355 231.852 232.413C231.818 232.472 231.772 232.518 231.714 232.554C231.657 232.588 231.593 232.605 231.522 232.605ZM234.35 230.432L232.944 235.656H232.484L233.89 230.432H234.35ZM236.489 230.432L235.083 235.656H234.623L236.029 230.432H236.489ZM238.415 235.068C238.108 235.068 237.844 234.996 237.622 234.851C237.401 234.706 237.23 234.506 237.111 234.252C236.991 233.998 236.932 233.707 236.932 233.381C236.932 233.048 236.993 232.755 237.115 232.501C237.239 232.245 237.411 232.045 237.631 231.902C237.852 231.757 238.111 231.685 238.406 231.685C238.636 231.685 238.844 231.727 239.028 231.812C239.213 231.898 239.364 232.017 239.482 232.17C239.6 232.324 239.673 232.503 239.702 232.707H239.199C239.161 232.558 239.075 232.426 238.943 232.311C238.813 232.195 238.636 232.136 238.415 232.136C238.219 232.136 238.047 232.187 237.899 232.29C237.753 232.391 237.638 232.533 237.556 232.718C237.475 232.901 237.435 233.116 237.435 233.364C237.435 233.616 237.474 233.837 237.554 234.024C237.635 234.212 237.749 234.357 237.895 234.461C238.043 234.565 238.216 234.616 238.415 234.616C238.545 234.616 238.664 234.594 238.771 234.548C238.877 234.503 238.967 234.438 239.041 234.352C239.115 234.267 239.168 234.165 239.199 234.045H239.702C239.673 234.239 239.603 234.413 239.491 234.567C239.38 234.721 239.233 234.843 239.05 234.934C238.868 235.023 238.656 235.068 238.415 235.068ZM241.766 235.068C241.471 235.068 241.212 234.998 240.989 234.857C240.767 234.717 240.594 234.52 240.469 234.267C240.345 234.014 240.283 233.719 240.283 233.381C240.283 233.04 240.345 232.742 240.469 232.488C240.594 232.234 240.767 232.036 240.989 231.896C241.212 231.755 241.471 231.685 241.766 231.685C242.062 231.685 242.32 231.755 242.542 231.896C242.765 232.036 242.938 232.234 243.062 232.488C243.187 232.742 243.249 233.04 243.249 233.381C243.249 233.719 243.187 234.014 243.062 234.267C242.938 234.52 242.765 234.717 242.542 234.857C242.32 234.998 242.062 235.068 241.766 235.068ZM241.766 234.616C241.991 234.616 242.175 234.559 242.32 234.444C242.465 234.329 242.572 234.178 242.642 233.99C242.712 233.803 242.746 233.599 242.746 233.381C242.746 233.162 242.712 232.958 242.642 232.769C242.572 232.58 242.465 232.428 242.32 232.311C242.175 232.195 241.991 232.136 241.766 232.136C241.542 232.136 241.357 232.195 241.212 232.311C241.067 232.428 240.96 232.58 240.891 232.769C240.821 232.958 240.786 233.162 240.786 233.381C240.786 233.599 240.821 233.803 240.891 233.99C240.96 234.178 241.067 234.329 241.212 234.444C241.357 234.559 241.542 234.616 241.766 234.616ZM245.346 235.068C245.051 235.068 244.792 234.998 244.569 234.857C244.347 234.717 244.174 234.52 244.049 234.267C243.925 234.014 243.863 233.719 243.863 233.381C243.863 233.04 243.925 232.742 244.049 232.488C244.174 232.234 244.347 232.036 244.569 231.896C244.792 231.755 245.051 231.685 245.346 231.685C245.642 231.685 245.9 231.755 246.122 231.896C246.345 232.036 246.518 232.234 246.642 232.488C246.767 232.742 246.829 233.04 246.829 233.381C246.829 233.719 246.767 234.014 246.642 234.267C246.518 234.52 246.345 234.717 246.122 234.857C245.9 234.998 245.642 235.068 245.346 235.068ZM245.346 234.616C245.571 234.616 245.756 234.559 245.9 234.444C246.045 234.329 246.153 234.178 246.222 233.99C246.292 233.803 246.327 233.599 246.327 233.381C246.327 233.162 246.292 232.958 246.222 232.769C246.153 232.58 246.045 232.428 245.9 232.311C245.756 232.195 245.571 232.136 245.346 232.136C245.122 232.136 244.937 232.195 244.792 232.311C244.648 232.428 244.54 232.58 244.471 232.769C244.401 232.958 244.366 233.162 244.366 233.381C244.366 233.599 244.401 233.803 244.471 233.99C244.54 234.178 244.648 234.329 244.792 234.444C244.937 234.559 245.122 234.616 245.346 234.616ZM248.1 230.636V235H247.597V230.636H248.1ZM250.35 235.068C250.055 235.068 249.796 234.998 249.573 234.857C249.351 234.717 249.178 234.52 249.053 234.267C248.929 234.014 248.867 233.719 248.867 233.381C248.867 233.04 248.929 232.742 249.053 232.488C249.178 232.234 249.351 232.036 249.573 231.896C249.796 231.755 250.055 231.685 250.35 231.685C250.646 231.685 250.904 231.755 251.126 231.896C251.349 232.036 251.522 232.234 251.646 232.488C251.771 232.742 251.833 233.04 251.833 233.381C251.833 233.719 251.771 234.014 251.646 234.267C251.522 234.52 251.349 234.717 251.126 234.857C250.904 234.998 250.646 235.068 250.35 235.068ZM250.35 234.616C250.575 234.616 250.759 234.559 250.904 234.444C251.049 234.329 251.156 234.178 251.226 233.99C251.296 233.803 251.33 233.599 251.33 233.381C251.33 233.162 251.296 232.958 251.226 232.769C251.156 232.58 251.049 232.428 250.904 232.311C250.759 232.195 250.575 232.136 250.35 232.136C250.126 232.136 249.941 232.195 249.796 232.311C249.651 232.428 249.544 232.58 249.475 232.769C249.405 232.958 249.37 233.162 249.37 233.381C249.37 233.599 249.405 233.803 249.475 233.99C249.544 234.178 249.651 234.329 249.796 234.444C249.941 234.559 250.126 234.616 250.35 234.616ZM252.601 235V231.727H253.087V232.222H253.121C253.18 232.06 253.288 231.928 253.445 231.827C253.601 231.727 253.777 231.676 253.973 231.676C254.01 231.676 254.056 231.677 254.112 231.678C254.167 231.68 254.209 231.682 254.237 231.685V232.196C254.22 232.192 254.181 232.185 254.12 232.177C254.06 232.167 253.997 232.162 253.93 232.162C253.771 232.162 253.629 232.195 253.504 232.262C253.381 232.327 253.283 232.418 253.21 232.535C253.139 232.65 253.104 232.781 253.104 232.929V235H252.601ZM257.151 232.46L256.7 232.588C256.671 232.513 256.629 232.44 256.574 232.369C256.52 232.296 256.446 232.237 256.352 232.19C256.259 232.143 256.139 232.119 255.992 232.119C255.792 232.119 255.625 232.165 255.492 232.258C255.36 232.349 255.294 232.464 255.294 232.605C255.294 232.73 255.339 232.829 255.43 232.901C255.521 232.974 255.663 233.034 255.856 233.082L256.342 233.202C256.634 233.273 256.852 233.381 256.996 233.528C257.139 233.673 257.211 233.859 257.211 234.088C257.211 234.276 257.157 234.443 257.049 234.591C256.943 234.739 256.794 234.855 256.602 234.94C256.41 235.026 256.187 235.068 255.933 235.068C255.599 235.068 255.323 234.996 255.104 234.851C254.885 234.706 254.747 234.494 254.688 234.216L255.166 234.097C255.211 234.273 255.297 234.405 255.423 234.493C255.551 234.581 255.718 234.625 255.924 234.625C256.159 234.625 256.345 234.575 256.482 234.476C256.622 234.375 256.691 234.254 256.691 234.114C256.691 234 256.651 233.905 256.572 233.828C256.492 233.75 256.37 233.692 256.205 233.653L255.66 233.526C255.36 233.455 255.14 233.344 254.999 233.195C254.86 233.045 254.791 232.857 254.791 232.631C254.791 232.446 254.843 232.283 254.946 232.141C255.051 231.999 255.194 231.887 255.374 231.806C255.556 231.725 255.762 231.685 255.992 231.685C256.316 231.685 256.57 231.756 256.755 231.898C256.941 232.04 257.073 232.227 257.151 232.46ZM258.335 235.034C258.229 235.034 258.139 234.996 258.064 234.921C257.989 234.846 257.951 234.756 257.951 234.651C257.951 234.545 257.989 234.455 258.064 234.38C258.139 234.305 258.229 234.267 258.335 234.267C258.44 234.267 258.53 234.305 258.605 234.38C258.68 234.455 258.718 234.545 258.718 234.651C258.718 234.72 258.7 234.784 258.665 234.842C258.631 234.901 258.585 234.947 258.526 234.983C258.469 235.017 258.406 235.034 258.335 235.034ZM260.95 235.068C260.643 235.068 260.379 234.996 260.157 234.851C259.936 234.706 259.765 234.506 259.646 234.252C259.527 233.998 259.467 233.707 259.467 233.381C259.467 233.048 259.528 232.755 259.65 232.501C259.774 232.245 259.946 232.045 260.166 231.902C260.387 231.757 260.646 231.685 260.941 231.685C261.172 231.685 261.379 231.727 261.564 231.812C261.748 231.898 261.9 232.017 262.017 232.17C262.135 232.324 262.208 232.503 262.237 232.707H261.734C261.696 232.558 261.61 232.426 261.478 232.311C261.348 232.195 261.172 232.136 260.95 232.136C260.754 232.136 260.582 232.187 260.434 232.29C260.288 232.391 260.174 232.533 260.091 232.718C260.01 232.901 259.97 233.116 259.97 233.364C259.97 233.616 260.01 233.837 260.089 234.024C260.17 234.212 260.284 234.357 260.43 234.461C260.578 234.565 260.751 234.616 260.95 234.616C261.081 234.616 261.199 234.594 261.306 234.548C261.412 234.503 261.502 234.438 261.576 234.352C261.65 234.267 261.703 234.165 261.734 234.045H262.237C262.208 234.239 262.138 234.413 262.026 234.567C261.915 234.721 261.768 234.843 261.585 234.934C261.403 235.023 261.191 235.068 260.95 235.068ZM264.301 235.068C264.006 235.068 263.747 234.998 263.524 234.857C263.302 234.717 263.129 234.52 263.004 234.267C262.88 234.014 262.819 233.719 262.819 233.381C262.819 233.04 262.88 232.742 263.004 232.488C263.129 232.234 263.302 232.036 263.524 231.896C263.747 231.755 264.006 231.685 264.301 231.685C264.597 231.685 264.855 231.755 265.077 231.896C265.3 232.036 265.473 232.234 265.597 232.488C265.722 232.742 265.784 233.04 265.784 233.381C265.784 233.719 265.722 234.014 265.597 234.267C265.473 234.52 265.3 234.717 265.077 234.857C264.855 234.998 264.597 235.068 264.301 235.068ZM264.301 234.616C264.526 234.616 264.711 234.559 264.855 234.444C265 234.329 265.108 234.178 265.177 233.99C265.247 233.803 265.282 233.599 265.282 233.381C265.282 233.162 265.247 232.958 265.177 232.769C265.108 232.58 265 232.428 264.855 232.311C264.711 232.195 264.526 232.136 264.301 232.136C264.077 232.136 263.892 232.195 263.748 232.311C263.603 232.428 263.495 232.58 263.426 232.769C263.356 232.958 263.321 233.162 263.321 233.381C263.321 233.599 263.356 233.803 263.426 233.99C263.495 234.178 263.603 234.329 263.748 234.444C263.892 234.559 264.077 234.616 264.301 234.616ZM268.095 230.432L266.688 235.656H266.228L267.634 230.432H268.095ZM270.131 235.06C269.952 235.057 269.773 235.023 269.594 234.957C269.415 234.892 269.252 234.782 269.104 234.627C268.956 234.471 268.838 234.26 268.748 233.994C268.659 233.727 268.614 233.392 268.614 232.989C268.614 232.602 268.65 232.26 268.723 231.962C268.795 231.662 268.9 231.41 269.038 231.205C269.176 230.999 269.342 230.843 269.537 230.737C269.733 230.63 269.953 230.577 270.199 230.577C270.444 230.577 270.661 230.626 270.851 230.724C271.043 230.82 271.199 230.955 271.32 231.129C271.441 231.302 271.519 231.501 271.554 231.727H271.034C270.986 231.531 270.892 231.369 270.753 231.239C270.614 231.11 270.429 231.045 270.199 231.045C269.861 231.045 269.595 231.192 269.4 231.487C269.207 231.781 269.11 232.193 269.108 232.724H269.142C269.222 232.604 269.316 232.501 269.426 232.415C269.537 232.329 269.659 232.262 269.792 232.215C269.926 232.168 270.067 232.145 270.216 232.145C270.466 232.145 270.695 232.207 270.902 232.332C271.11 232.456 271.276 232.627 271.401 232.846C271.526 233.063 271.588 233.312 271.588 233.594C271.588 233.864 271.528 234.111 271.407 234.335C271.287 234.558 271.117 234.736 270.898 234.868C270.681 234.999 270.425 235.062 270.131 235.06ZM270.131 234.591C270.31 234.591 270.471 234.546 270.613 234.457C270.756 234.367 270.869 234.247 270.951 234.097C271.035 233.946 271.077 233.778 271.077 233.594C271.077 233.413 271.037 233.249 270.956 233.102C270.876 232.952 270.766 232.834 270.625 232.746C270.486 232.658 270.327 232.614 270.148 232.614C270.013 232.614 269.887 232.641 269.771 232.695C269.654 232.747 269.552 232.82 269.464 232.912C269.377 233.004 269.309 233.11 269.26 233.229C269.21 233.347 269.185 233.472 269.185 233.602C269.185 233.776 269.225 233.937 269.306 234.088C269.389 234.239 269.501 234.36 269.643 234.452C269.787 234.545 269.949 234.591 270.131 234.591ZM273.398 235.077C273.191 235.077 273.002 235.038 272.833 234.96C272.664 234.88 272.53 234.766 272.431 234.616C272.331 234.466 272.281 234.284 272.281 234.071C272.281 233.884 272.318 233.732 272.392 233.615C272.466 233.497 272.565 233.405 272.688 233.338C272.812 233.271 272.948 233.222 273.097 233.189C273.248 233.155 273.399 233.128 273.551 233.108C273.75 233.082 273.911 233.063 274.035 233.05C274.16 233.036 274.251 233.013 274.308 232.98C274.366 232.947 274.395 232.891 274.395 232.81V232.793C274.395 232.582 274.338 232.419 274.222 232.303C274.109 232.186 273.936 232.128 273.705 232.128C273.465 232.128 273.276 232.18 273.14 232.286C273.004 232.391 272.908 232.503 272.852 232.622L272.375 232.452C272.46 232.253 272.574 232.098 272.716 231.987C272.86 231.875 273.016 231.797 273.185 231.753C273.355 231.707 273.523 231.685 273.688 231.685C273.793 231.685 273.914 231.697 274.05 231.723C274.188 231.747 274.32 231.798 274.448 231.874C274.578 231.951 274.685 232.067 274.77 232.222C274.855 232.376 274.898 232.584 274.898 232.844V235H274.395V234.557H274.369C274.335 234.628 274.279 234.704 274.199 234.785C274.119 234.866 274.014 234.935 273.882 234.991C273.749 235.048 273.588 235.077 273.398 235.077ZM273.475 234.625C273.673 234.625 273.841 234.586 273.977 234.508C274.115 234.43 274.219 234.329 274.289 234.205C274.36 234.082 274.395 233.952 274.395 233.815V233.355C274.374 233.381 274.327 233.404 274.254 233.425C274.183 233.445 274.101 233.463 274.007 233.479C273.915 233.493 273.825 233.506 273.737 233.517C273.65 233.527 273.58 233.536 273.526 233.543C273.395 233.56 273.273 233.587 273.159 233.626C273.047 233.663 272.956 233.719 272.887 233.794C272.818 233.868 272.784 233.969 272.784 234.097C272.784 234.271 272.849 234.403 272.978 234.493C273.109 234.581 273.274 234.625 273.475 234.625ZM275.807 235V234.616L277.248 233.04C277.417 232.855 277.556 232.695 277.665 232.558C277.775 232.42 277.855 232.291 277.908 232.17C277.962 232.048 277.989 231.92 277.989 231.787C277.989 231.634 277.952 231.501 277.878 231.388C277.806 231.276 277.706 231.19 277.58 231.129C277.453 231.067 277.311 231.037 277.154 231.037C276.986 231.037 276.84 231.072 276.715 231.141C276.591 231.21 276.495 231.305 276.427 231.429C276.36 231.553 276.327 231.697 276.327 231.864H275.824C275.824 231.608 275.883 231.384 276.001 231.19C276.119 230.997 276.279 230.847 276.483 230.739C276.687 230.631 276.917 230.577 277.171 230.577C277.426 230.577 277.653 230.631 277.85 230.739C278.048 230.847 278.203 230.992 278.315 231.175C278.427 231.359 278.483 231.562 278.483 231.787C278.483 231.947 278.454 232.104 278.396 232.258C278.339 232.41 278.24 232.58 278.098 232.767C277.957 232.953 277.762 233.18 277.512 233.449L276.532 234.497V234.531H278.56V235H275.807ZM280.829 230.577C281.008 230.578 281.187 230.612 281.366 230.679C281.545 230.746 281.708 230.857 281.856 231.011C282.004 231.165 282.123 231.374 282.212 231.64C282.301 231.906 282.346 232.239 282.346 232.639C282.346 233.027 282.309 233.371 282.235 233.673C282.163 233.972 282.058 234.225 281.92 234.431C281.784 234.637 281.618 234.793 281.422 234.9C281.227 235.006 281.007 235.06 280.761 235.06C280.517 235.06 280.299 235.011 280.107 234.915C279.917 234.817 279.76 234.681 279.638 234.508C279.517 234.333 279.44 234.131 279.406 233.901H279.926C279.973 234.101 280.066 234.266 280.205 234.397C280.346 234.526 280.531 234.591 280.761 234.591C281.098 234.591 281.363 234.444 281.558 234.15C281.754 233.856 281.852 233.44 281.852 232.903H281.818C281.738 233.023 281.644 233.126 281.534 233.212C281.425 233.299 281.304 233.366 281.17 233.413C281.037 233.46 280.895 233.483 280.744 233.483C280.494 233.483 280.265 233.421 280.056 233.298C279.848 233.173 279.682 233.001 279.557 232.784C279.434 232.565 279.372 232.315 279.372 232.034C279.372 231.767 279.431 231.523 279.551 231.301C279.672 231.078 279.841 230.901 280.058 230.768C280.277 230.636 280.534 230.572 280.829 230.577ZM280.829 231.045C280.65 231.045 280.489 231.09 280.346 231.18C280.203 231.268 280.091 231.387 280.007 231.538C279.924 231.687 279.883 231.852 279.883 232.034C279.883 232.216 279.923 232.381 280.002 232.531C280.083 232.678 280.194 232.796 280.333 232.884C280.473 232.971 280.633 233.014 280.812 233.014C280.947 233.014 281.073 232.988 281.189 232.935C281.306 232.881 281.407 232.808 281.494 232.716C281.582 232.622 281.651 232.516 281.701 232.398C281.75 232.279 281.775 232.155 281.775 232.026C281.775 231.855 281.734 231.695 281.652 231.546C281.571 231.397 281.458 231.276 281.315 231.184C281.173 231.092 281.011 231.045 280.829 231.045ZM283.082 234.105V233.67L284.999 230.636H285.315V231.31H285.102L283.653 233.602V233.636H286.235V234.105H283.082ZM285.136 235V233.973V233.771V230.636H285.639V235H285.136ZM288.278 235.068C288.005 235.068 287.765 234.999 287.556 234.862C287.347 234.722 287.184 234.526 287.066 234.273C286.948 234.019 286.889 233.719 286.889 233.372C286.889 233.028 286.948 232.73 287.066 232.477C287.184 232.224 287.348 232.029 287.558 231.891C287.768 231.754 288.011 231.685 288.287 231.685C288.5 231.685 288.668 231.72 288.792 231.791C288.917 231.861 289.012 231.94 289.077 232.03C289.144 232.118 289.196 232.19 289.233 232.247H289.275V230.636H289.778V235H289.292V234.497H289.233C289.196 234.557 289.143 234.632 289.075 234.723C289.007 234.812 288.909 234.893 288.783 234.964C288.657 235.033 288.488 235.068 288.278 235.068ZM288.346 234.616C288.548 234.616 288.718 234.564 288.858 234.459C288.997 234.352 289.103 234.205 289.175 234.018C289.248 233.829 289.284 233.611 289.284 233.364C289.284 233.119 289.248 232.906 289.177 232.722C289.106 232.538 289.001 232.394 288.862 232.292C288.723 232.188 288.551 232.136 288.346 232.136C288.133 232.136 287.956 232.191 287.814 232.3C287.673 232.408 287.567 232.555 287.496 232.741C287.426 232.926 287.392 233.134 287.392 233.364C287.392 233.597 287.427 233.808 287.498 233.999C287.571 234.187 287.677 234.338 287.818 234.45C287.96 234.561 288.136 234.616 288.346 234.616ZM292.644 232.895V233.364H290.735V232.895H292.644ZM294.858 235.068C294.551 235.068 294.287 234.996 294.066 234.851C293.844 234.706 293.673 234.506 293.554 234.252C293.435 233.998 293.375 233.707 293.375 233.381C293.375 233.048 293.436 232.755 293.558 232.501C293.682 232.245 293.854 232.045 294.074 231.902C294.296 231.757 294.554 231.685 294.85 231.685C295.08 231.685 295.287 231.727 295.472 231.812C295.656 231.898 295.808 232.017 295.926 232.17C296.044 232.324 296.117 232.503 296.145 232.707H295.642C295.604 232.558 295.519 232.426 295.387 232.311C295.256 232.195 295.08 232.136 294.858 232.136C294.662 232.136 294.49 232.187 294.343 232.29C294.196 232.391 294.082 232.533 293.999 232.718C293.919 232.901 293.878 233.116 293.878 233.364C293.878 233.616 293.918 233.837 293.997 234.024C294.078 234.212 294.192 234.357 294.338 234.461C294.486 234.565 294.659 234.616 294.858 234.616C294.989 234.616 295.107 234.594 295.214 234.548C295.32 234.503 295.411 234.438 295.485 234.352C295.558 234.267 295.611 234.165 295.642 234.045H296.145C296.117 234.239 296.046 234.413 295.934 234.567C295.823 234.721 295.676 234.843 295.493 234.934C295.311 235.023 295.1 235.068 294.858 235.068ZM298.338 231.727V232.153H296.573V231.727H298.338ZM297.102 235V231.276C297.102 231.088 297.146 230.932 297.234 230.807C297.322 230.682 297.436 230.588 297.577 230.526C297.718 230.463 297.866 230.432 298.022 230.432C298.146 230.432 298.247 230.442 298.325 230.462C298.403 230.482 298.461 230.5 298.499 230.517L298.355 230.952C298.329 230.943 298.294 230.933 298.248 230.92C298.204 230.907 298.146 230.901 298.073 230.901C297.907 230.901 297.787 230.942 297.713 231.026C297.641 231.11 297.605 231.233 297.605 231.395V235H297.102ZM300.397 235.06C300.147 235.06 299.922 235.01 299.722 234.911C299.522 234.811 299.361 234.675 299.24 234.501C299.12 234.328 299.054 234.131 299.042 233.909H299.554C299.574 234.107 299.663 234.27 299.822 234.399C299.983 234.527 300.174 234.591 300.397 234.591C300.576 234.591 300.735 234.549 300.875 234.465C301.015 234.381 301.125 234.266 301.205 234.12C301.286 233.972 301.326 233.805 301.326 233.619C301.326 233.429 301.284 233.259 301.201 233.11C301.118 232.96 301.005 232.841 300.86 232.754C300.715 232.668 300.549 232.624 300.363 232.622C300.23 232.621 300.093 232.641 299.952 232.684C299.811 232.725 299.696 232.778 299.605 232.844L299.11 232.784L299.375 230.636H301.642V231.105H299.818L299.664 232.392H299.69C299.779 232.321 299.892 232.262 300.027 232.215C300.162 232.168 300.302 232.145 300.449 232.145C300.716 232.145 300.953 232.209 301.162 232.337C301.373 232.463 301.537 232.636 301.657 232.857C301.777 233.077 301.838 233.328 301.838 233.611C301.838 233.889 301.775 234.138 301.65 234.357C301.527 234.574 301.356 234.746 301.139 234.872C300.922 234.997 300.674 235.06 300.397 235.06ZM304.048 235.06C303.798 235.06 303.573 235.01 303.372 234.911C303.172 234.811 303.012 234.675 302.891 234.501C302.77 234.328 302.704 234.131 302.693 233.909H303.204C303.224 234.107 303.313 234.27 303.472 234.399C303.633 234.527 303.825 234.591 304.048 234.591C304.227 234.591 304.386 234.549 304.525 234.465C304.666 234.381 304.776 234.266 304.855 234.12C304.936 233.972 304.977 233.805 304.977 233.619C304.977 233.429 304.935 233.259 304.851 233.11C304.769 232.96 304.655 232.841 304.51 232.754C304.365 232.668 304.2 232.624 304.014 232.622C303.88 232.621 303.743 232.641 303.602 232.684C303.462 232.725 303.346 232.778 303.255 232.844L302.761 232.784L303.025 230.636H305.292V231.105H303.468L303.315 232.392H303.34C303.43 232.321 303.542 232.262 303.677 232.215C303.812 232.168 303.953 232.145 304.099 232.145C304.366 232.145 304.604 232.209 304.813 232.337C305.023 232.463 305.188 232.636 305.307 232.857C305.428 233.077 305.488 233.328 305.488 233.611C305.488 233.889 305.426 234.138 305.301 234.357C305.177 234.574 305.007 234.746 304.789 234.872C304.572 234.997 304.325 235.06 304.048 235.06ZM307.724 230.577C307.903 230.578 308.082 230.612 308.261 230.679C308.44 230.746 308.603 230.857 308.751 231.011C308.898 231.165 309.017 231.374 309.107 231.64C309.196 231.906 309.241 232.239 309.241 232.639C309.241 233.027 309.204 233.371 309.13 233.673C309.058 233.972 308.952 234.225 308.815 234.431C308.678 234.637 308.512 234.793 308.316 234.9C308.121 235.006 307.901 235.06 307.656 235.06C307.411 235.06 307.193 235.011 307.001 234.915C306.811 234.817 306.655 234.681 306.533 234.508C306.412 234.333 306.335 234.131 306.3 233.901H306.82C306.867 234.101 306.96 234.266 307.099 234.397C307.24 234.526 307.425 234.591 307.656 234.591C307.992 234.591 308.258 234.444 308.452 234.15C308.648 233.856 308.746 233.44 308.746 232.903H308.712C308.633 233.023 308.538 233.126 308.429 233.212C308.32 233.299 308.198 233.366 308.065 233.413C307.931 233.46 307.789 233.483 307.638 233.483C307.388 233.483 307.159 233.421 306.95 233.298C306.743 233.173 306.577 233.001 306.452 232.784C306.328 232.565 306.266 232.315 306.266 232.034C306.266 231.767 306.326 231.523 306.445 231.301C306.566 231.078 306.735 230.901 306.952 230.768C307.171 230.636 307.428 230.572 307.724 230.577ZM307.724 231.045C307.545 231.045 307.384 231.09 307.24 231.18C307.098 231.268 306.985 231.387 306.901 231.538C306.819 231.687 306.778 231.852 306.778 232.034C306.778 232.216 306.817 232.381 306.897 232.531C306.978 232.678 307.088 232.796 307.227 232.884C307.368 232.971 307.528 233.014 307.707 233.014C307.842 233.014 307.967 232.988 308.084 232.935C308.2 232.881 308.302 232.808 308.388 232.716C308.477 232.622 308.545 232.516 308.595 232.398C308.645 232.279 308.67 232.155 308.67 232.026C308.67 231.855 308.629 231.695 308.546 231.546C308.465 231.397 308.353 231.276 308.21 231.184C308.067 231.092 307.906 231.045 307.724 231.045ZM310.098 235L312.05 231.139V231.105H309.8V230.636H312.595V231.131L310.652 235H310.098ZM315.273 232.584V233.053H313.364V232.584H315.273ZM317.553 235.06C317.272 235.06 317.021 235.011 316.801 234.915C316.582 234.818 316.408 234.684 316.279 234.512C316.151 234.339 316.081 234.138 316.07 233.909H316.607C316.618 234.05 316.667 234.171 316.752 234.273C316.837 234.374 316.949 234.452 317.086 234.508C317.224 234.563 317.377 234.591 317.545 234.591C317.732 234.591 317.898 234.558 318.043 234.493C318.188 234.428 318.302 234.337 318.384 234.22C318.466 234.104 318.508 233.969 318.508 233.815C318.508 233.655 318.468 233.513 318.388 233.391C318.309 233.268 318.192 233.171 318.039 233.102C317.885 233.032 317.698 232.997 317.476 232.997H317.127V232.528H317.476C317.65 232.528 317.802 232.497 317.932 232.435C318.064 232.372 318.167 232.284 318.241 232.17C318.317 232.057 318.354 231.923 318.354 231.77C318.354 231.622 318.322 231.494 318.256 231.384C318.191 231.275 318.099 231.19 317.979 231.129C317.861 231.067 317.722 231.037 317.562 231.037C317.411 231.037 317.269 231.065 317.135 231.12C317.003 231.174 316.895 231.253 316.812 231.357C316.728 231.459 316.682 231.582 316.675 231.727H316.164C316.172 231.499 316.241 231.298 316.371 231.126C316.5 230.953 316.669 230.818 316.878 230.722C317.088 230.625 317.319 230.577 317.57 230.577C317.84 230.577 318.072 230.631 318.265 230.741C318.458 230.849 318.606 230.991 318.71 231.169C318.814 231.347 318.866 231.538 318.866 231.744C318.866 231.99 318.801 232.2 318.672 232.373C318.544 232.546 318.37 232.666 318.15 232.733V232.767C318.425 232.812 318.64 232.93 318.795 233.119C318.95 233.306 319.028 233.538 319.028 233.815C319.028 234.053 318.963 234.266 318.834 234.455C318.706 234.642 318.531 234.79 318.309 234.898C318.088 235.006 317.836 235.06 317.553 235.06ZM321.373 235.06C321.092 235.06 320.841 235.011 320.621 234.915C320.403 234.818 320.229 234.684 320.099 234.512C319.971 234.339 319.902 234.138 319.89 233.909H320.427C320.439 234.05 320.487 234.171 320.572 234.273C320.657 234.374 320.769 234.452 320.907 234.508C321.045 234.563 321.197 234.591 321.365 234.591C321.552 234.591 321.719 234.558 321.863 234.493C322.008 234.428 322.122 234.337 322.204 234.22C322.287 234.104 322.328 233.969 322.328 233.815C322.328 233.655 322.288 233.513 322.209 233.391C322.129 233.268 322.013 233.171 321.859 233.102C321.706 233.032 321.518 232.997 321.297 232.997H320.947V232.528H321.297C321.47 232.528 321.622 232.497 321.753 232.435C321.885 232.372 321.988 232.284 322.062 232.17C322.137 232.057 322.175 231.923 322.175 231.77C322.175 231.622 322.142 231.494 322.077 231.384C322.011 231.275 321.919 231.19 321.8 231.129C321.682 231.067 321.542 231.037 321.382 231.037C321.231 231.037 321.089 231.065 320.956 231.12C320.824 231.174 320.716 231.253 320.632 231.357C320.548 231.459 320.503 231.582 320.496 231.727H319.984C319.993 231.499 320.062 231.298 320.191 231.126C320.32 230.953 320.489 230.818 320.698 230.722C320.908 230.625 321.139 230.577 321.39 230.577C321.66 230.577 321.892 230.631 322.085 230.741C322.278 230.849 322.427 230.991 322.53 231.169C322.634 231.347 322.686 231.538 322.686 231.744C322.686 231.99 322.621 232.2 322.492 232.373C322.364 232.546 322.19 232.666 321.97 232.733V232.767C322.246 232.812 322.461 232.93 322.616 233.119C322.77 233.306 322.848 233.538 322.848 233.815C322.848 234.053 322.783 234.266 322.654 234.455C322.526 234.642 322.351 234.79 322.13 234.898C321.908 235.006 321.656 235.06 321.373 235.06ZM323.856 235L325.807 231.139V231.105H323.557V230.636H326.353V231.131L324.41 235H323.856ZM327.224 235V230.636H327.727V232.247H327.769C327.806 232.19 327.857 232.118 327.923 232.03C327.989 231.94 328.085 231.861 328.208 231.791C328.333 231.72 328.502 231.685 328.715 231.685C328.991 231.685 329.234 231.754 329.444 231.891C329.654 232.029 329.818 232.224 329.936 232.477C330.054 232.73 330.113 233.028 330.113 233.372C330.113 233.719 330.054 234.019 329.936 234.273C329.818 234.526 329.655 234.722 329.446 234.862C329.237 234.999 328.996 235.068 328.724 235.068C328.513 235.068 328.345 235.033 328.219 234.964C328.092 234.893 327.995 234.812 327.927 234.723C327.859 234.632 327.806 234.557 327.769 234.497H327.71V235H327.224ZM327.718 233.364C327.718 233.611 327.754 233.829 327.827 234.018C327.899 234.205 328.005 234.352 328.144 234.459C328.283 234.564 328.454 234.616 328.656 234.616C328.866 234.616 329.041 234.561 329.182 234.45C329.324 234.338 329.43 234.187 329.501 233.999C329.574 233.808 329.61 233.597 329.61 233.364C329.61 233.134 329.575 232.926 329.504 232.741C329.434 232.555 329.328 232.408 329.186 232.3C329.045 232.191 328.869 232.136 328.656 232.136C328.451 232.136 328.279 232.188 328.14 232.292C328.001 232.394 327.896 232.538 327.825 232.722C327.754 232.906 327.718 233.119 327.718 233.364ZM331.01 235L332.962 231.139V231.105H330.712V230.636H333.507V231.131L331.564 235H331.01ZM334.555 235L336.507 231.139V231.105H334.257V230.636H337.052V231.131L335.109 235H334.555ZM339.73 232.584V233.053H337.821V232.584H339.73ZM340.504 234.105V233.67L342.421 230.636H342.737V231.31H342.524L341.075 233.602V233.636H343.657V234.105H340.504ZM342.558 235V233.973V233.771V230.636H343.061V235H342.558ZM344.456 235V234.616L345.896 233.04C346.065 232.855 346.204 232.695 346.314 232.558C346.423 232.42 346.504 232.291 346.556 232.17C346.61 232.048 346.637 231.92 346.637 231.787C346.637 231.634 346.6 231.501 346.527 231.388C346.454 231.276 346.355 231.19 346.228 231.129C346.102 231.067 345.96 231.037 345.802 231.037C345.635 231.037 345.488 231.072 345.363 231.141C345.24 231.21 345.144 231.305 345.076 231.429C345.009 231.553 344.975 231.697 344.975 231.864H344.473C344.473 231.608 344.532 231.384 344.65 231.19C344.767 230.997 344.928 230.847 345.131 230.739C345.336 230.631 345.565 230.577 345.819 230.577C346.075 230.577 346.301 230.631 346.499 230.739C346.696 230.847 346.851 230.992 346.963 231.175C347.076 231.359 347.132 231.562 347.132 231.787C347.132 231.947 347.103 232.104 347.044 232.258C346.988 232.41 346.888 232.58 346.746 232.767C346.605 232.953 346.41 233.18 346.16 233.449L345.18 234.497V234.531H347.208V235H344.456ZM349.478 230.577C349.657 230.578 349.836 230.612 350.015 230.679C350.194 230.746 350.357 230.857 350.505 231.011C350.652 231.165 350.771 231.374 350.86 231.64C350.95 231.906 350.995 232.239 350.995 232.639C350.995 233.027 350.958 233.371 350.884 233.673C350.811 233.972 350.706 234.225 350.569 234.431C350.432 234.637 350.266 234.793 350.07 234.9C349.875 235.006 349.655 235.06 349.409 235.06C349.165 235.06 348.947 235.011 348.755 234.915C348.565 234.817 348.409 234.681 348.287 234.508C348.166 234.333 348.088 234.131 348.054 233.901H348.574C348.621 234.101 348.714 234.266 348.853 234.397C348.994 234.526 349.179 234.591 349.409 234.591C349.746 234.591 350.012 234.444 350.206 234.15C350.402 233.856 350.5 233.44 350.5 232.903H350.466C350.387 233.023 350.292 233.126 350.183 233.212C350.074 233.299 349.952 233.366 349.819 233.413C349.685 233.46 349.543 233.483 349.392 233.483C349.142 233.483 348.913 233.421 348.704 233.298C348.497 233.173 348.331 233.001 348.206 232.784C348.082 232.565 348.02 232.315 348.02 232.034C348.02 231.767 348.08 231.523 348.199 231.301C348.32 231.078 348.489 230.901 348.706 230.768C348.925 230.636 349.182 230.572 349.478 230.577ZM349.478 231.045C349.299 231.045 349.137 231.09 348.994 231.18C348.852 231.268 348.739 231.387 348.655 231.538C348.573 231.687 348.532 231.852 348.532 232.034C348.532 232.216 348.571 232.381 348.651 232.531C348.732 232.678 348.842 232.796 348.981 232.884C349.122 232.971 349.282 233.014 349.461 233.014C349.596 233.014 349.721 232.988 349.838 232.935C349.954 232.881 350.056 232.808 350.142 232.716C350.23 232.622 350.299 232.516 350.349 232.398C350.399 232.279 350.424 232.155 350.424 232.026C350.424 231.855 350.382 231.695 350.3 231.546C350.219 231.397 350.107 231.276 349.963 231.184C349.821 231.092 349.659 231.045 349.478 231.045ZM351.852 235L353.803 231.139V231.105H351.553V230.636H354.349V231.131L352.406 235H351.852ZM356.609 231.727V232.153H354.845V231.727H356.609ZM355.373 235V231.276C355.373 231.088 355.417 230.932 355.505 230.807C355.593 230.682 355.708 230.588 355.848 230.526C355.989 230.463 356.137 230.432 356.294 230.432C356.417 230.432 356.518 230.442 356.596 230.462C356.674 230.482 356.733 230.5 356.771 230.517L356.626 230.952C356.6 230.943 356.565 230.933 356.52 230.92C356.475 230.907 356.417 230.901 356.345 230.901C356.179 230.901 356.059 230.942 355.985 231.026C355.912 231.11 355.876 231.233 355.876 231.395V235H355.373ZM358.183 235.077C357.976 235.077 357.787 235.038 357.618 234.96C357.449 234.88 357.315 234.766 357.216 234.616C357.116 234.466 357.067 234.284 357.067 234.071C357.067 233.884 357.104 233.732 357.177 233.615C357.251 233.497 357.35 233.405 357.474 233.338C357.597 233.271 357.733 233.222 357.883 233.189C358.033 233.155 358.184 233.128 358.336 233.108C358.535 233.082 358.697 233.063 358.82 233.05C358.945 233.036 359.036 233.013 359.093 232.98C359.151 232.947 359.18 232.891 359.18 232.81V232.793C359.18 232.582 359.123 232.419 359.008 232.303C358.894 232.186 358.721 232.128 358.49 232.128C358.25 232.128 358.062 232.18 357.925 232.286C357.789 232.391 357.693 232.503 357.638 232.622L357.16 232.452C357.246 232.253 357.359 232.098 357.501 231.987C357.645 231.875 357.801 231.797 357.97 231.753C358.14 231.707 358.308 231.685 358.473 231.685C358.578 231.685 358.699 231.697 358.835 231.723C358.973 231.747 359.106 231.798 359.233 231.874C359.363 231.951 359.47 232.067 359.555 232.222C359.64 232.376 359.683 232.584 359.683 232.844V235H359.18V234.557H359.155C359.121 234.628 359.064 234.704 358.984 234.785C358.905 234.866 358.799 234.935 358.667 234.991C358.535 235.048 358.373 235.077 358.183 235.077ZM358.26 234.625C358.459 234.625 358.626 234.586 358.763 234.508C358.9 234.43 359.004 234.329 359.074 234.205C359.145 234.082 359.18 233.952 359.18 233.815V233.355C359.159 233.381 359.112 233.404 359.04 233.425C358.969 233.445 358.886 233.463 358.792 233.479C358.7 233.493 358.61 233.506 358.522 233.517C358.435 233.527 358.365 233.536 358.311 233.543C358.18 233.56 358.058 233.587 357.944 233.626C357.832 233.663 357.741 233.719 357.672 233.794C357.604 233.868 357.569 233.969 357.569 234.097C357.569 234.271 357.634 234.403 357.763 234.493C357.894 234.581 358.059 234.625 358.26 234.625ZM362.476 232.895V233.364H360.567V232.895H362.476ZM364.818 231.727V232.153H363.054V231.727H364.818ZM363.582 235V231.276C363.582 231.088 363.626 230.932 363.714 230.807C363.802 230.682 363.917 230.588 364.057 230.526C364.198 230.463 364.346 230.432 364.503 230.432C364.626 230.432 364.727 230.442 364.805 230.462C364.883 230.482 364.942 230.5 364.98 230.517L364.835 230.952C364.809 230.943 364.774 230.933 364.729 230.92C364.684 230.907 364.626 230.901 364.554 230.901C364.388 230.901 364.268 230.942 364.194 231.026C364.121 231.11 364.085 231.233 364.085 231.395V235H363.582ZM366.624 235.068C366.351 235.068 366.11 234.999 365.901 234.862C365.693 234.722 365.529 234.526 365.411 234.273C365.294 234.019 365.235 233.719 365.235 233.372C365.235 233.028 365.294 232.73 365.411 232.477C365.529 232.224 365.693 232.029 365.904 231.891C366.114 231.754 366.357 231.685 366.632 231.685C366.845 231.685 367.014 231.72 367.137 231.791C367.262 231.861 367.357 231.94 367.423 232.03C367.49 232.118 367.541 232.19 367.578 232.247H367.621V230.636H368.124V235H367.638V234.497H367.578C367.541 234.557 367.489 234.632 367.421 234.723C367.352 234.812 367.255 234.893 367.129 234.964C367.002 235.033 366.834 235.068 366.624 235.068ZM366.692 234.616C366.894 234.616 367.064 234.564 367.203 234.459C367.343 234.352 367.448 234.205 367.521 234.018C367.593 233.829 367.629 233.611 367.629 233.364C367.629 233.119 367.594 232.906 367.523 232.722C367.452 232.538 367.347 232.394 367.208 232.292C367.068 232.188 366.896 232.136 366.692 232.136C366.479 232.136 366.301 232.191 366.159 232.3C366.019 232.408 365.913 232.555 365.842 232.741C365.772 232.926 365.737 233.134 365.737 233.364C365.737 233.597 365.773 233.808 365.844 233.999C365.916 234.187 366.023 234.338 366.164 234.45C366.306 234.561 366.482 234.616 366.692 234.616ZM370.444 235.068C370.137 235.068 369.873 234.996 369.651 234.851C369.43 234.706 369.259 234.506 369.14 234.252C369.021 233.998 368.961 233.707 368.961 233.381C368.961 233.048 369.022 232.755 369.144 232.501C369.268 232.245 369.44 232.045 369.66 231.902C369.882 231.757 370.14 231.685 370.436 231.685C370.666 231.685 370.873 231.727 371.058 231.812C371.242 231.898 371.394 232.017 371.512 232.17C371.629 232.324 371.703 232.503 371.731 232.707H371.228C371.19 232.558 371.105 232.426 370.972 232.311C370.842 232.195 370.666 232.136 370.444 232.136C370.248 232.136 370.076 232.187 369.928 232.29C369.782 232.391 369.668 232.533 369.585 232.718C369.504 232.901 369.464 233.116 369.464 233.364C369.464 233.616 369.504 233.837 369.583 234.024C369.664 234.212 369.778 234.357 369.924 234.461C370.072 234.565 370.245 234.616 370.444 234.616C370.575 234.616 370.693 234.594 370.8 234.548C370.906 234.503 370.997 234.438 371.07 234.352C371.144 234.267 371.197 234.165 371.228 234.045H371.731C371.703 234.239 371.632 234.413 371.52 234.567C371.409 234.721 371.262 234.843 371.079 234.934C370.897 235.023 370.686 235.068 370.444 235.068ZM373.838 235.068C373.523 235.068 373.251 234.999 373.022 234.859C372.795 234.719 372.619 234.523 372.496 234.271C372.374 234.018 372.313 233.724 372.313 233.389C372.313 233.054 372.374 232.759 372.496 232.503C372.619 232.246 372.791 232.045 373.012 231.902C373.233 231.757 373.492 231.685 373.787 231.685C373.958 231.685 374.126 231.713 374.292 231.77C374.458 231.827 374.61 231.919 374.746 232.047C374.882 232.173 374.991 232.341 375.072 232.55C375.153 232.759 375.193 233.016 375.193 233.321V233.534H372.671V233.099H374.682C374.682 232.915 374.645 232.75 374.571 232.605C374.499 232.46 374.395 232.346 374.26 232.262C374.127 232.178 373.969 232.136 373.787 232.136C373.587 232.136 373.414 232.186 373.267 232.286C373.122 232.384 373.011 232.511 372.933 232.669C372.855 232.827 372.816 232.996 372.816 233.176V233.466C372.816 233.713 372.858 233.923 372.943 234.094C373.03 234.265 373.15 234.395 373.303 234.484C373.457 234.572 373.635 234.616 373.838 234.616C373.97 234.616 374.09 234.598 374.196 234.561C374.304 234.523 374.397 234.466 374.475 234.391C374.553 234.314 374.614 234.219 374.656 234.105L375.142 234.241C375.091 234.406 375.005 234.551 374.884 234.676C374.764 234.8 374.615 234.896 374.437 234.966C374.259 235.034 374.06 235.068 373.838 235.068ZM377.373 235.06C377.052 235.06 376.779 234.972 376.553 234.798C376.327 234.621 376.154 234.366 376.035 234.033C375.916 233.697 375.856 233.293 375.856 232.818C375.856 232.347 375.916 231.944 376.035 231.61C376.156 231.275 376.329 231.019 376.555 230.843C376.782 230.665 377.055 230.577 377.373 230.577C377.691 230.577 377.963 230.665 378.189 230.843C378.416 231.019 378.59 231.275 378.709 231.61C378.83 231.944 378.89 232.347 378.89 232.818C378.89 233.293 378.83 233.697 378.711 234.033C378.592 234.366 378.419 234.621 378.193 234.798C377.968 234.972 377.694 235.06 377.373 235.06ZM377.373 234.591C377.691 234.591 377.938 234.437 378.115 234.131C378.291 233.824 378.379 233.386 378.379 232.818C378.379 232.44 378.338 232.119 378.257 231.853C378.178 231.587 378.063 231.385 377.912 231.246C377.763 231.107 377.583 231.037 377.373 231.037C377.058 231.037 376.811 231.192 376.634 231.504C376.456 231.813 376.367 232.251 376.367 232.818C376.367 233.196 376.407 233.517 376.487 233.781C376.566 234.045 376.681 234.246 376.83 234.384C376.98 234.522 377.161 234.591 377.373 234.591ZM379.7 235V234.616L381.14 233.04C381.309 232.855 381.448 232.695 381.558 232.558C381.667 232.42 381.748 232.291 381.801 232.17C381.855 232.048 381.882 231.92 381.882 231.787C381.882 231.634 381.845 231.501 381.771 231.388C381.698 231.276 381.599 231.19 381.472 231.129C381.346 231.067 381.204 231.037 381.046 231.037C380.879 231.037 380.732 231.072 380.607 231.141C380.484 231.21 380.388 231.305 380.32 231.429C380.253 231.553 380.22 231.697 380.22 231.864H379.717C379.717 231.608 379.776 231.384 379.894 231.19C380.012 230.997 380.172 230.847 380.375 230.739C380.58 230.631 380.809 230.577 381.063 230.577C381.319 230.577 381.546 230.631 381.743 230.739C381.941 230.847 382.095 230.992 382.208 231.175C382.32 231.359 382.376 231.562 382.376 231.787C382.376 231.947 382.347 232.104 382.289 232.258C382.232 232.41 382.132 232.58 381.99 232.767C381.85 232.953 381.654 233.18 381.404 233.449L380.424 234.497V234.531H382.453V235H379.7ZM385.216 232.584V233.053H383.307V232.584H385.216ZM387.516 235.06C387.195 235.06 386.921 234.972 386.695 234.798C386.469 234.621 386.297 234.366 386.178 234.033C386.058 233.697 385.999 233.293 385.999 232.818C385.999 232.347 386.058 231.944 386.178 231.61C386.298 231.275 386.472 231.019 386.697 230.843C386.925 230.665 387.197 230.577 387.516 230.577C387.834 230.577 388.106 230.665 388.332 230.843C388.559 231.019 388.732 231.275 388.852 231.61C388.972 231.944 389.033 232.347 389.033 232.818C389.033 233.293 388.973 233.697 388.854 234.033C388.734 234.366 388.562 234.621 388.336 234.798C388.11 234.972 387.837 235.06 387.516 235.06ZM387.516 234.591C387.834 234.591 388.081 234.437 388.257 234.131C388.433 233.824 388.521 233.386 388.521 232.818C388.521 232.44 388.481 232.119 388.4 231.853C388.32 231.587 388.205 231.385 388.055 231.246C387.906 231.107 387.726 231.037 387.516 231.037C387.2 231.037 386.954 231.192 386.776 231.504C386.599 231.813 386.51 232.251 386.51 232.818C386.51 233.196 386.55 233.517 386.629 233.781C386.709 234.045 386.823 234.246 386.972 234.384C387.123 234.522 387.304 234.591 387.516 234.591ZM391.232 230.577C391.411 230.578 391.589 230.612 391.768 230.679C391.947 230.746 392.111 230.857 392.259 231.011C392.406 231.165 392.525 231.374 392.614 231.64C392.704 231.906 392.749 232.239 392.749 232.639C392.749 233.027 392.712 233.371 392.638 233.673C392.565 233.972 392.46 234.225 392.322 234.431C392.186 234.637 392.02 234.793 391.824 234.9C391.629 235.006 391.409 235.06 391.163 235.06C390.919 235.06 390.701 235.011 390.509 234.915C390.319 234.817 390.163 234.681 390.04 234.508C389.92 234.333 389.842 234.131 389.808 233.901H390.328C390.375 234.101 390.468 234.266 390.607 234.397C390.748 234.526 390.933 234.591 391.163 234.591C391.5 234.591 391.766 234.444 391.96 234.15C392.156 233.856 392.254 233.44 392.254 232.903H392.22C392.141 233.023 392.046 233.126 391.937 233.212C391.827 233.299 391.706 233.366 391.572 233.413C391.439 233.46 391.297 233.483 391.146 233.483C390.896 233.483 390.667 233.421 390.458 233.298C390.251 233.173 390.085 233.001 389.96 232.784C389.836 232.565 389.774 232.315 389.774 232.034C389.774 231.767 389.834 231.523 389.953 231.301C390.074 231.078 390.243 230.901 390.46 230.768C390.679 230.636 390.936 230.572 391.232 230.577ZM391.232 231.045C391.053 231.045 390.891 231.09 390.748 231.18C390.606 231.268 390.493 231.387 390.409 231.538C390.327 231.687 390.286 231.852 390.286 232.034C390.286 232.216 390.325 232.381 390.405 232.531C390.486 232.678 390.596 232.796 390.735 232.884C390.876 232.971 391.036 233.014 391.214 233.014C391.349 233.014 391.475 232.988 391.592 232.935C391.708 232.881 391.81 232.808 391.896 232.716C391.984 232.622 392.053 232.516 392.103 232.398C392.153 232.279 392.178 232.155 392.178 232.026C392.178 231.855 392.136 231.695 392.054 231.546C391.973 231.397 391.861 231.276 391.717 231.184C391.575 231.092 391.413 231.045 391.232 231.045ZM395.121 230.636V235H394.592V231.19H394.567L393.501 231.898V231.361L394.592 230.636H395.121ZM396.376 235V234.616L397.816 233.04C397.985 232.855 398.124 232.695 398.233 232.558C398.343 232.42 398.424 232.291 398.476 232.17C398.53 232.048 398.557 231.92 398.557 231.787C398.557 231.634 398.52 231.501 398.447 231.388C398.374 231.276 398.275 231.19 398.148 231.129C398.022 231.067 397.88 231.037 397.722 231.037C397.555 231.037 397.408 231.072 397.283 231.141C397.16 231.21 397.064 231.305 396.996 231.429C396.929 231.553 396.895 231.697 396.895 231.864H396.393C396.393 231.608 396.452 231.384 396.569 231.19C396.687 230.997 396.848 230.847 397.051 230.739C397.256 230.631 397.485 230.577 397.739 230.577C397.995 230.577 398.221 230.631 398.419 230.739C398.616 230.847 398.771 230.992 398.883 231.175C398.996 231.359 399.052 231.562 399.052 231.787C399.052 231.947 399.023 232.104 398.964 232.258C398.907 232.41 398.808 232.58 398.666 232.767C398.525 232.953 398.33 233.18 398.08 233.449L397.1 234.497V234.531H399.128V235H396.376ZM400.008 235V234.616L401.449 233.04C401.618 232.855 401.757 232.695 401.866 232.558C401.976 232.42 402.057 232.291 402.109 232.17C402.163 232.048 402.19 231.92 402.19 231.787C402.19 231.634 402.153 231.501 402.079 231.388C402.007 231.276 401.907 231.19 401.781 231.129C401.655 231.067 401.513 231.037 401.355 231.037C401.187 231.037 401.041 231.072 400.916 231.141C400.792 231.21 400.697 231.305 400.628 231.429C400.562 231.553 400.528 231.697 400.528 231.864H400.025C400.025 231.608 400.084 231.384 400.202 231.19C400.32 230.997 400.481 230.847 400.684 230.739C400.888 230.631 401.118 230.577 401.372 230.577C401.628 230.577 401.854 230.631 402.052 230.739C402.249 230.847 402.404 230.992 402.516 231.175C402.628 231.359 402.684 231.562 402.684 231.787C402.684 231.947 402.655 232.104 402.597 232.258C402.54 232.41 402.441 232.58 402.299 232.767C402.158 232.953 401.963 233.18 401.713 233.449L400.733 234.497V234.531H402.761V235H400.008ZM405.175 230.636V235H404.647V231.19H404.621L403.556 231.898V231.361L404.647 230.636H405.175ZM408.314 232.584V233.053H406.405V232.584H408.314ZM410.613 235.06C410.292 235.06 410.019 234.972 409.793 234.798C409.567 234.621 409.395 234.366 409.275 234.033C409.156 233.697 409.096 233.293 409.096 232.818C409.096 232.347 409.156 231.944 409.275 231.61C409.396 231.275 409.569 231.019 409.795 230.843C410.022 230.665 410.295 230.577 410.613 230.577C410.931 230.577 411.203 230.665 411.429 230.843C411.657 231.019 411.83 231.275 411.949 231.61C412.07 231.944 412.13 232.347 412.13 232.818C412.13 233.293 412.071 233.697 411.951 234.033C411.832 234.366 411.659 234.621 411.434 234.798C411.208 234.972 410.934 235.06 410.613 235.06ZM410.613 234.591C410.931 234.591 411.179 234.437 411.355 234.131C411.531 233.824 411.619 233.386 411.619 232.818C411.619 232.44 411.578 232.119 411.498 231.853C411.418 231.587 411.303 231.385 411.152 231.246C411.003 231.107 410.824 231.037 410.613 231.037C410.298 231.037 410.051 231.192 409.874 231.504C409.696 231.813 409.608 232.251 409.608 232.818C409.608 233.196 409.647 233.517 409.727 233.781C409.806 234.045 409.921 234.246 410.07 234.384C410.221 234.522 410.402 234.591 410.613 234.591ZM414.363 235.06C414.042 235.06 413.769 234.972 413.543 234.798C413.317 234.621 413.145 234.366 413.025 234.033C412.906 233.697 412.846 233.293 412.846 232.818C412.846 232.347 412.906 231.944 413.025 231.61C413.146 231.275 413.319 231.019 413.545 230.843C413.772 230.665 414.045 230.577 414.363 230.577C414.681 230.577 414.953 230.665 415.179 230.843C415.407 231.019 415.58 231.275 415.699 231.61C415.82 231.944 415.88 232.347 415.88 232.818C415.88 233.293 415.821 233.697 415.701 234.033C415.582 234.366 415.409 234.621 415.184 234.798C414.958 234.972 414.684 235.06 414.363 235.06ZM414.363 234.591C414.681 234.591 414.929 234.437 415.105 234.131C415.281 233.824 415.369 233.386 415.369 232.818C415.369 232.44 415.328 232.119 415.248 231.853C415.168 231.587 415.053 231.385 414.902 231.246C414.753 231.107 414.574 231.037 414.363 231.037C414.048 231.037 413.801 231.192 413.624 231.504C413.446 231.813 413.358 232.251 413.358 232.818C413.358 233.196 413.397 233.517 413.477 233.781C413.556 234.045 413.671 234.246 413.82 234.384C413.971 234.522 414.152 234.591 414.363 234.591ZM418.113 235.06C417.792 235.06 417.519 234.972 417.293 234.798C417.067 234.621 416.895 234.366 416.775 234.033C416.656 233.697 416.596 233.293 416.596 232.818C416.596 232.347 416.656 231.944 416.775 231.61C416.896 231.275 417.069 231.019 417.295 230.843C417.522 230.665 417.795 230.577 418.113 230.577C418.431 230.577 418.703 230.665 418.929 230.843C419.157 231.019 419.33 231.275 419.449 231.61C419.57 231.944 419.63 232.347 419.63 232.818C419.63 233.293 419.571 233.697 419.451 234.033C419.332 234.366 419.159 234.621 418.934 234.798C418.708 234.972 418.434 235.06 418.113 235.06ZM418.113 234.591C418.431 234.591 418.679 234.437 418.855 234.131C419.031 233.824 419.119 233.386 419.119 232.818C419.119 232.44 419.078 232.119 418.998 231.853C418.918 231.587 418.803 231.385 418.652 231.246C418.503 231.107 418.324 231.037 418.113 231.037C417.798 231.037 417.551 231.192 417.374 231.504C417.196 231.813 417.108 232.251 417.108 232.818C417.108 233.196 417.147 233.517 417.227 233.781C417.306 234.045 417.421 234.246 417.57 234.384C417.721 234.522 417.902 234.591 418.113 234.591ZM421.863 235.06C421.542 235.06 421.269 234.972 421.043 234.798C420.817 234.621 420.645 234.366 420.525 234.033C420.406 233.697 420.346 233.293 420.346 232.818C420.346 232.347 420.406 231.944 420.525 231.61C420.646 231.275 420.819 231.019 421.045 230.843C421.272 230.665 421.545 230.577 421.863 230.577C422.181 230.577 422.453 230.665 422.679 230.843C422.907 231.019 423.08 231.275 423.199 231.61C423.32 231.944 423.38 232.347 423.38 232.818C423.38 233.293 423.321 233.697 423.201 234.033C423.082 234.366 422.909 234.621 422.684 234.798C422.458 234.972 422.184 235.06 421.863 235.06ZM421.863 234.591C422.181 234.591 422.429 234.437 422.605 234.131C422.781 233.824 422.869 233.386 422.869 232.818C422.869 232.44 422.828 232.119 422.748 231.853C422.668 231.587 422.553 231.385 422.402 231.246C422.253 231.107 422.074 231.037 421.863 231.037C421.548 231.037 421.301 231.192 421.124 231.504C420.946 231.813 420.858 232.251 420.858 232.818C420.858 233.196 420.897 233.517 420.977 233.781C421.056 234.045 421.171 234.246 421.32 234.384C421.471 234.522 421.652 234.591 421.863 234.591ZM425.613 235.06C425.292 235.06 425.019 234.972 424.793 234.798C424.567 234.621 424.395 234.366 424.275 234.033C424.156 233.697 424.096 233.293 424.096 232.818C424.096 232.347 424.156 231.944 424.275 231.61C424.396 231.275 424.569 231.019 424.795 230.843C425.022 230.665 425.295 230.577 425.613 230.577C425.931 230.577 426.203 230.665 426.429 230.843C426.657 231.019 426.83 231.275 426.949 231.61C427.07 231.944 427.13 232.347 427.13 232.818C427.13 233.293 427.071 233.697 426.951 234.033C426.832 234.366 426.659 234.621 426.434 234.798C426.208 234.972 425.934 235.06 425.613 235.06ZM425.613 234.591C425.931 234.591 426.179 234.437 426.355 234.131C426.531 233.824 426.619 233.386 426.619 232.818C426.619 232.44 426.578 232.119 426.498 231.853C426.418 231.587 426.303 231.385 426.152 231.246C426.003 231.107 425.824 231.037 425.613 231.037C425.298 231.037 425.051 231.192 424.874 231.504C424.696 231.813 424.608 232.251 424.608 232.818C424.608 233.196 424.647 233.517 424.727 233.781C424.806 234.045 424.921 234.246 425.07 234.384C425.221 234.522 425.402 234.591 425.613 234.591ZM429.363 235.06C429.042 235.06 428.769 234.972 428.543 234.798C428.317 234.621 428.145 234.366 428.025 234.033C427.906 233.697 427.846 233.293 427.846 232.818C427.846 232.347 427.906 231.944 428.025 231.61C428.146 231.275 428.319 231.019 428.545 230.843C428.772 230.665 429.045 230.577 429.363 230.577C429.681 230.577 429.953 230.665 430.179 230.843C430.407 231.019 430.58 231.275 430.699 231.61C430.82 231.944 430.88 232.347 430.88 232.818C430.88 233.293 430.821 233.697 430.701 234.033C430.582 234.366 430.409 234.621 430.184 234.798C429.958 234.972 429.684 235.06 429.363 235.06ZM429.363 234.591C429.681 234.591 429.929 234.437 430.105 234.131C430.281 233.824 430.369 233.386 430.369 232.818C430.369 232.44 430.328 232.119 430.248 231.853C430.168 231.587 430.053 231.385 429.902 231.246C429.753 231.107 429.574 231.037 429.363 231.037C429.048 231.037 428.801 231.192 428.624 231.504C428.446 231.813 428.358 232.251 428.358 232.818C428.358 233.196 428.397 233.517 428.477 233.781C428.556 234.045 428.671 234.246 428.82 234.384C428.971 234.522 429.152 234.591 429.363 234.591ZM433.574 232.584V233.053H431.664V232.584H433.574ZM435.847 235.06C435.555 235.06 435.296 235.008 435.072 234.904C434.849 234.799 434.675 234.655 434.55 234.472C434.425 234.287 434.363 234.077 434.365 233.841C434.363 233.656 434.399 233.486 434.473 233.33C434.547 233.172 434.648 233.04 434.776 232.935C434.905 232.829 435.049 232.761 435.208 232.733V232.707C434.999 232.653 434.833 232.536 434.71 232.356C434.586 232.174 434.525 231.967 434.526 231.736C434.525 231.514 434.581 231.316 434.695 231.141C434.808 230.967 434.965 230.829 435.164 230.728C435.364 230.627 435.592 230.577 435.847 230.577C436.1 230.577 436.326 230.627 436.525 230.728C436.724 230.829 436.88 230.967 436.994 231.141C437.109 231.316 437.167 231.514 437.169 231.736C437.167 231.967 437.104 232.174 436.979 232.356C436.855 232.536 436.691 232.653 436.487 232.707V232.733C436.644 232.761 436.786 232.829 436.913 232.935C437.039 233.04 437.14 233.172 437.215 233.33C437.291 233.486 437.329 233.656 437.33 233.841C437.329 234.077 437.265 234.287 437.139 234.472C437.014 234.655 436.84 234.799 436.617 234.904C436.395 235.008 436.139 235.06 435.847 235.06ZM435.847 234.591C436.045 234.591 436.215 234.559 436.359 234.495C436.502 234.431 436.613 234.341 436.691 234.224C436.769 234.108 436.809 233.972 436.811 233.815C436.809 233.651 436.767 233.505 436.683 233.379C436.599 233.252 436.485 233.153 436.34 233.08C436.196 233.008 436.032 232.972 435.847 232.972C435.661 232.972 435.495 233.008 435.349 233.08C435.204 233.153 435.09 233.252 435.006 233.379C434.923 233.505 434.883 233.651 434.884 233.815C434.883 233.972 434.921 234.108 434.997 234.224C435.075 234.341 435.187 234.431 435.332 234.495C435.477 234.559 435.649 234.591 435.847 234.591ZM435.847 232.52C436.004 232.52 436.142 232.489 436.263 232.426C436.385 232.364 436.481 232.276 436.551 232.164C436.62 232.052 436.656 231.92 436.657 231.77C436.656 231.622 436.621 231.494 436.553 231.384C436.485 231.273 436.39 231.188 436.269 231.129C436.149 231.067 436.008 231.037 435.847 231.037C435.684 231.037 435.541 231.067 435.419 231.129C435.297 231.188 435.203 231.273 435.136 231.384C435.069 231.494 435.036 231.622 435.038 231.77C435.036 231.92 435.07 232.052 435.138 232.164C435.208 232.276 435.303 232.364 435.426 232.426C435.548 232.489 435.688 232.52 435.847 232.52ZM439.57 235.06C439.249 235.06 438.976 234.972 438.75 234.798C438.524 234.621 438.352 234.366 438.232 234.033C438.113 233.697 438.053 233.293 438.053 232.818C438.053 232.347 438.113 231.944 438.232 231.61C438.353 231.275 438.526 231.019 438.752 230.843C438.979 230.665 439.252 230.577 439.57 230.577C439.888 230.577 440.161 230.665 440.386 230.843C440.614 231.019 440.787 231.275 440.906 231.61C441.027 231.944 441.087 232.347 441.087 232.818C441.087 233.293 441.028 233.697 440.908 234.033C440.789 234.366 440.616 234.621 440.391 234.798C440.165 234.972 439.891 235.06 439.57 235.06ZM439.57 234.591C439.888 234.591 440.136 234.437 440.312 234.131C440.488 233.824 440.576 233.386 440.576 232.818C440.576 232.44 440.536 232.119 440.455 231.853C440.375 231.587 440.26 231.385 440.109 231.246C439.96 231.107 439.781 231.037 439.57 231.037C439.255 231.037 439.009 231.192 438.831 231.504C438.653 231.813 438.565 232.251 438.565 232.818C438.565 233.196 438.604 233.517 438.684 233.781C438.763 234.045 438.878 234.246 439.027 234.384C439.178 234.522 439.359 234.591 439.57 234.591ZM443.295 235.06C443.002 235.06 442.744 235.008 442.519 234.904C442.296 234.799 442.122 234.655 441.997 234.472C441.872 234.287 441.81 234.077 441.812 233.841C441.81 233.656 441.847 233.486 441.92 233.33C441.994 233.172 442.095 233.04 442.223 232.935C442.352 232.829 442.496 232.761 442.656 232.733V232.707C442.447 232.653 442.281 232.536 442.157 232.356C442.033 232.174 441.972 231.967 441.974 231.736C441.972 231.514 442.028 231.316 442.142 231.141C442.256 230.967 442.412 230.829 442.611 230.728C442.811 230.627 443.039 230.577 443.295 230.577C443.548 230.577 443.773 230.627 443.972 230.728C444.171 230.829 444.327 230.967 444.441 231.141C444.556 231.316 444.614 231.514 444.616 231.736C444.614 231.967 444.551 232.174 444.426 232.356C444.303 232.536 444.138 232.653 443.934 232.707V232.733C444.092 232.761 444.234 232.829 444.36 232.935C444.487 233.04 444.587 233.172 444.663 233.33C444.738 233.486 444.776 233.656 444.778 233.841C444.776 234.077 444.712 234.287 444.586 234.472C444.461 234.655 444.287 234.799 444.064 234.904C443.842 235.008 443.586 235.06 443.295 235.06ZM443.295 234.591C443.492 234.591 443.663 234.559 443.806 234.495C443.95 234.431 444.06 234.341 444.138 234.224C444.217 234.108 444.256 233.972 444.258 233.815C444.256 233.651 444.214 233.505 444.13 233.379C444.046 233.252 443.932 233.153 443.787 233.08C443.643 233.008 443.479 232.972 443.295 232.972C443.109 232.972 442.942 233.008 442.796 233.08C442.651 233.153 442.537 233.252 442.453 233.379C442.371 233.505 442.33 233.651 442.332 233.815C442.33 233.972 442.368 234.108 442.445 234.224C442.523 234.341 442.634 234.431 442.779 234.495C442.924 234.559 443.096 234.591 443.295 234.591ZM443.295 232.52C443.451 232.52 443.589 232.489 443.71 232.426C443.832 232.364 443.928 232.276 443.998 232.164C444.067 232.052 444.103 231.92 444.104 231.77C444.103 231.622 444.068 231.494 444 231.384C443.932 231.273 443.837 231.188 443.717 231.129C443.596 231.067 443.455 231.037 443.295 231.037C443.131 231.037 442.989 231.067 442.866 231.129C442.744 231.188 442.65 231.273 442.583 231.384C442.516 231.494 442.484 231.622 442.485 231.77C442.484 231.92 442.517 232.052 442.585 232.164C442.655 232.276 442.751 232.364 442.873 232.426C442.995 232.489 443.136 232.52 443.295 232.52ZM447.018 235.06C446.697 235.06 446.423 234.972 446.197 234.798C445.971 234.621 445.799 234.366 445.68 234.033C445.56 233.697 445.501 233.293 445.501 232.818C445.501 232.347 445.56 231.944 445.68 231.61C445.8 231.275 445.974 231.019 446.199 230.843C446.427 230.665 446.699 230.577 447.018 230.577C447.336 230.577 447.608 230.665 447.834 230.843C448.061 231.019 448.234 231.275 448.354 231.61C448.474 231.944 448.535 232.347 448.535 232.818C448.535 233.293 448.475 233.697 448.356 234.033C448.236 234.366 448.064 234.621 447.838 234.798C447.612 234.972 447.339 235.06 447.018 235.06ZM447.018 234.591C447.336 234.591 447.583 234.437 447.759 234.131C447.935 233.824 448.023 233.386 448.023 232.818C448.023 232.44 447.983 232.119 447.902 231.853C447.822 231.587 447.707 231.385 447.557 231.246C447.407 231.107 447.228 231.037 447.018 231.037C446.702 231.037 446.456 231.192 446.278 231.504C446.101 231.813 446.012 232.251 446.012 232.818C446.012 233.196 446.052 233.517 446.131 233.781C446.211 234.045 446.325 234.246 446.474 234.384C446.625 234.522 446.806 234.591 447.018 234.591ZM450.742 235.06C450.449 235.06 450.191 235.008 449.966 234.904C449.743 234.799 449.569 234.655 449.444 234.472C449.319 234.287 449.258 234.077 449.259 233.841C449.258 233.656 449.294 233.486 449.368 233.33C449.442 233.172 449.542 233.04 449.67 232.935C449.8 232.829 449.944 232.761 450.103 232.733V232.707C449.894 232.653 449.728 232.536 449.604 232.356C449.481 232.174 449.42 231.967 449.421 231.736C449.42 231.514 449.476 231.316 449.589 231.141C449.703 230.967 449.859 230.829 450.058 230.728C450.258 230.627 450.486 230.577 450.742 230.577C450.995 230.577 451.221 230.627 451.42 230.728C451.618 230.829 451.775 230.967 451.888 231.141C452.003 231.316 452.062 231.514 452.063 231.736C452.062 231.967 451.998 232.174 451.873 232.356C451.75 232.536 451.586 232.653 451.381 232.707V232.733C451.539 232.761 451.681 232.829 451.807 232.935C451.934 233.04 452.035 233.172 452.11 233.33C452.185 233.486 452.224 233.656 452.225 233.841C452.224 234.077 452.16 234.287 452.033 234.472C451.908 234.655 451.734 234.799 451.511 234.904C451.29 235.008 451.033 235.06 450.742 235.06ZM450.742 234.591C450.939 234.591 451.11 234.559 451.253 234.495C451.397 234.431 451.508 234.341 451.586 234.224C451.664 234.108 451.704 233.972 451.705 233.815C451.704 233.651 451.661 233.505 451.577 233.379C451.493 233.252 451.379 233.153 451.234 233.08C451.091 233.008 450.927 232.972 450.742 232.972C450.556 232.972 450.39 233.008 450.243 233.08C450.099 233.153 449.984 233.252 449.9 233.379C449.818 233.505 449.778 233.651 449.779 233.815C449.778 233.972 449.815 234.108 449.892 234.224C449.97 234.341 450.081 234.431 450.226 234.495C450.371 234.559 450.543 234.591 450.742 234.591ZM450.742 232.52C450.898 232.52 451.037 232.489 451.157 232.426C451.28 232.364 451.376 232.276 451.445 232.164C451.515 232.052 451.55 231.92 451.552 231.77C451.55 231.622 451.515 231.494 451.447 231.384C451.379 231.273 451.285 231.188 451.164 231.129C451.043 231.067 450.903 231.037 450.742 231.037C450.579 231.037 450.436 231.067 450.314 231.129C450.192 231.188 450.097 231.273 450.03 231.384C449.964 231.494 449.931 231.622 449.932 231.77C449.931 231.92 449.964 232.052 450.032 232.164C450.102 232.276 450.198 232.364 450.32 232.426C450.442 232.489 450.583 232.52 450.742 232.52ZM454.465 235.06C454.144 235.06 453.87 234.972 453.645 234.798C453.419 234.621 453.246 234.366 453.127 234.033C453.007 233.697 452.948 233.293 452.948 232.818C452.948 232.347 453.007 231.944 453.127 231.61C453.248 231.275 453.421 231.019 453.647 230.843C453.874 230.665 454.147 230.577 454.465 230.577C454.783 230.577 455.055 230.665 455.281 230.843C455.508 231.019 455.681 231.275 455.801 231.61C455.922 231.944 455.982 232.347 455.982 232.818C455.982 233.293 455.922 233.697 455.803 234.033C455.684 234.366 455.511 234.621 455.285 234.798C455.059 234.972 454.786 235.06 454.465 235.06ZM454.465 234.591C454.783 234.591 455.03 234.437 455.206 234.131C455.382 233.824 455.471 233.386 455.471 232.818C455.471 232.44 455.43 232.119 455.349 231.853C455.27 231.587 455.154 231.385 455.004 231.246C454.855 231.107 454.675 231.037 454.465 231.037C454.15 231.037 453.903 231.192 453.725 231.504C453.548 231.813 453.459 232.251 453.459 232.818C453.459 233.196 453.499 233.517 453.578 233.781C453.658 234.045 453.772 234.246 453.922 234.384C454.072 234.522 454.253 234.591 454.465 234.591ZM458.675 232.895V233.364H456.766V232.895H458.675ZM461.017 231.727V232.153H459.253V231.727H461.017ZM459.781 235V231.276C459.781 231.088 459.825 230.932 459.914 230.807C460.002 230.682 460.116 230.588 460.257 230.526C460.397 230.463 460.546 230.432 460.702 230.432C460.825 230.432 460.926 230.442 461.004 230.462C461.083 230.482 461.141 230.5 461.179 230.517L461.034 230.952C461.009 230.943 460.973 230.933 460.928 230.92C460.884 230.907 460.825 230.901 460.753 230.901C460.587 230.901 460.467 230.942 460.393 231.026C460.32 231.11 460.284 231.233 460.284 231.395V235H459.781ZM463.248 230.636V235H462.719V231.19H462.694L461.628 231.898V231.361L462.719 230.636H463.248ZM465.968 231.727V232.153H464.204V231.727H465.968ZM464.733 235V231.276C464.733 231.088 464.777 230.932 464.865 230.807C464.953 230.682 465.067 230.588 465.208 230.526C465.348 230.463 465.497 230.432 465.653 230.432C465.777 230.432 465.877 230.442 465.956 230.462C466.034 230.482 466.092 230.5 466.13 230.517L465.985 230.952C465.96 230.943 465.924 230.933 465.879 230.92C465.835 230.907 465.777 230.901 465.704 230.901C465.538 230.901 465.418 230.942 465.344 231.026C465.272 231.11 465.235 231.233 465.235 231.395V235H464.733ZM468.199 230.636V235H467.67V231.19H467.645L466.579 231.898V231.361L467.67 230.636H468.199ZM470.92 231.727V232.153H469.155V231.727H470.92ZM469.684 235V231.276C469.684 231.088 469.728 230.932 469.816 230.807C469.904 230.682 470.018 230.588 470.159 230.526C470.3 230.463 470.448 230.432 470.604 230.432C470.728 230.432 470.829 230.442 470.907 230.462C470.985 230.482 471.043 230.5 471.081 230.517L470.937 230.952C470.911 230.943 470.876 230.933 470.83 230.92C470.786 230.907 470.728 230.901 470.655 230.901C470.489 230.901 470.369 230.942 470.295 231.026C470.223 231.11 470.187 231.233 470.187 231.395V235H469.684ZM473.15 230.636V235H472.621V231.19H472.596L471.531 231.898V231.361L472.621 230.636H473.15ZM476.288 232.895V233.364H474.379V232.895H476.288ZM478.631 231.727V232.153H476.866V231.727H478.631ZM477.395 235V231.276C477.395 231.088 477.439 230.932 477.527 230.807C477.615 230.682 477.729 230.588 477.87 230.526C478.01 230.463 478.159 230.432 478.315 230.432C478.439 230.432 478.54 230.442 478.618 230.462C478.696 230.482 478.754 230.5 478.792 230.517L478.648 230.952C478.622 230.943 478.586 230.933 478.541 230.92C478.497 230.907 478.439 230.901 478.366 230.901C478.2 230.901 478.08 230.942 478.006 231.026C477.934 231.11 477.898 231.233 477.898 231.395V235H477.395ZM480.793 231.727V232.153H479.028V231.727H480.793ZM479.557 235V231.276C479.557 231.088 479.601 230.932 479.689 230.807C479.777 230.682 479.891 230.588 480.032 230.526C480.173 230.463 480.321 230.432 480.477 230.432C480.601 230.432 480.702 230.442 480.78 230.462C480.858 230.482 480.916 230.5 480.955 230.517L480.81 230.952C480.784 230.943 480.749 230.933 480.703 230.92C480.659 230.907 480.601 230.901 480.528 230.901C480.362 230.901 480.242 230.942 480.168 231.026C480.096 231.11 480.06 231.233 480.06 231.395V235H479.557ZM482.955 231.727V232.153H481.191V231.727H482.955ZM481.719 235V231.276C481.719 231.088 481.763 230.932 481.851 230.807C481.939 230.682 482.053 230.588 482.194 230.526C482.335 230.463 482.483 230.432 482.639 230.432C482.763 230.432 482.864 230.442 482.942 230.462C483.02 230.482 483.078 230.5 483.117 230.517L482.972 230.952C482.946 230.943 482.911 230.933 482.865 230.92C482.821 230.907 482.763 230.901 482.691 230.901C482.524 230.901 482.404 230.942 482.33 231.026C482.258 231.11 482.222 231.233 482.222 231.395V235H481.719ZM485.117 231.727V232.153H483.353V231.727H485.117ZM483.881 235V231.276C483.881 231.088 483.925 230.932 484.013 230.807C484.101 230.682 484.216 230.588 484.356 230.526C484.497 230.463 484.645 230.432 484.801 230.432C484.925 230.432 485.026 230.442 485.104 230.462C485.182 230.482 485.24 230.5 485.279 230.517L485.134 230.952C485.108 230.943 485.073 230.933 485.027 230.92C484.983 230.907 484.925 230.901 484.853 230.901C484.686 230.901 484.566 230.942 484.493 231.026C484.42 231.11 484.384 231.233 484.384 231.395V235H483.881ZM487.279 231.727V232.153H485.515V231.727H487.279ZM486.043 235V231.276C486.043 231.088 486.087 230.932 486.175 230.807C486.263 230.682 486.378 230.588 486.518 230.526C486.659 230.463 486.807 230.432 486.964 230.432C487.087 230.432 487.188 230.442 487.266 230.462C487.344 230.482 487.403 230.5 487.441 230.517L487.296 230.952C487.27 230.943 487.235 230.933 487.189 230.92C487.145 230.907 487.087 230.901 487.015 230.901C486.849 230.901 486.729 230.942 486.655 231.026C486.582 231.11 486.546 231.233 486.546 231.395V235H486.043ZM489.441 231.727V232.153H487.677V231.727H489.441ZM488.205 235V231.276C488.205 231.088 488.249 230.932 488.337 230.807C488.425 230.682 488.54 230.588 488.68 230.526C488.821 230.463 488.969 230.432 489.126 230.432C489.249 230.432 489.35 230.442 489.428 230.462C489.506 230.482 489.565 230.5 489.603 230.517L489.458 230.952C489.433 230.943 489.397 230.933 489.352 230.92C489.308 230.907 489.249 230.901 489.177 230.901C489.011 230.901 488.891 230.942 488.817 231.026C488.744 231.11 488.708 231.233 488.708 231.395V235H488.205Z" fill="black" />
</svg>
